<svg width="88" height="36" viewBox="0 0 88 36" fill="none" xmlns="http://www.w3.org/2000/svg">
<g opacity="0.4" clip-path="url(#clip0_38_5060)">
<path d="M42.3022 3.79639H45.2189C47.9532 3.79639 49.89 5.39222 49.89 7.65112C49.89 9.91002 47.9532 11.5171 45.2189 11.5171H42.3022V3.79639ZM45.5834 9.53916C46.7683 9.53916 47.6114 8.75247 47.6114 7.65112C47.6114 6.54977 46.7683 5.77433 45.5834 5.77433H44.5125V9.53916H45.5834Z" fill="white"/>
<path d="M51.0063 3.79639H53.2166V11.5171H51.0063V3.79639Z" fill="white"/>
<path d="M58.2068 6.99939H61.8754V10.281C61.0665 11.1463 59.8702 11.652 58.6398 11.652C56.2928 11.652 54.3218 9.82021 54.3218 7.65122C54.3218 5.48222 56.2928 3.66162 58.6398 3.66162C59.8702 3.66162 61.0665 4.16734 61.8754 5.02145L60.2462 6.42624C59.8588 5.93176 59.2664 5.63956 58.6398 5.63956C57.5346 5.63956 56.6004 6.5611 56.6004 7.65122C56.6004 8.74133 57.5346 9.67411 58.6398 9.67411C59.0271 9.67411 59.4031 9.56173 59.7335 9.35944V8.60647H58.2068V6.99939Z" fill="white"/>
<path d="M63.106 3.79639H65.3162V11.5171H63.106V3.79639Z" fill="white"/>
<path d="M68.6087 5.74061H66.2959V3.79639H73.1317V5.74061H70.8189V11.5171H68.6087V5.74061Z" fill="white"/>
<path d="M78.5548 10.4832H75.8318L75.4331 11.5171H72.938L75.9458 3.79639H78.4408L81.4486 11.5171H78.9535L78.5548 10.4832ZM77.9281 8.8761L77.199 6.9993L76.4584 8.8761H77.9281Z" fill="white"/>
<path d="M87.9996 9.57287V11.5171H82.1436V3.79639H84.3538V9.57287H87.9996Z" fill="white"/>
<path d="M41.71 20.7195L42.9404 19.2698C43.7379 19.8879 44.6038 20.2138 45.5266 20.2138C46.1305 20.2138 46.4495 20.0115 46.4495 19.6743C46.4495 19.3035 46.176 19.2473 45.0937 19C43.3961 18.6179 42.0859 18.1796 42.0859 16.5726C42.0859 14.9655 43.3164 14.0327 45.1734 14.0327C46.5292 14.0327 47.5888 14.3923 48.4547 15.0779L47.3495 16.6175C46.6204 16.1006 45.8229 15.8421 45.1165 15.8421C44.581 15.8421 44.319 16.0556 44.319 16.3478C44.319 16.7411 44.5924 16.8648 45.7089 17.1008C47.5318 17.4829 48.6711 17.9661 48.6711 19.4383C48.6711 21.0679 47.4065 22.0231 45.4469 22.0231C44.0341 22.0231 42.7012 21.5848 41.71 20.7195Z" fill="white"/>
<path d="M51.8724 16.1117V16.9771H55.5979V18.9213H51.8724V19.944H55.9625V21.8882H49.6621V14.1675H55.9625V16.1117H51.8724Z" fill="white"/>
<path d="M59.2894 16.1117V16.9771H63.0149V18.9213H59.2894V19.944H63.3795V21.8882H57.0791V14.1675H63.3795V16.1117H59.2894Z" fill="white"/>
<path d="M64.4961 14.1675H67.4127C70.147 14.1675 72.0839 15.7633 72.0839 18.0222C72.0839 20.2811 70.147 21.8882 67.4127 21.8882H64.4961V14.1675ZM67.7773 19.9102C68.9622 19.9102 69.8053 19.1236 69.8053 18.0222C69.8053 16.9209 68.9622 16.1454 67.7773 16.1454H66.7063V19.9102H67.7773Z" fill="white"/>
<path d="M41.71 31.0344L42.9404 29.5847C43.7379 30.2028 44.6038 30.5287 45.5266 30.5287C46.1305 30.5287 46.4495 30.3264 46.4495 29.9893C46.4495 29.6184 46.176 29.5622 45.0937 29.315C43.3961 28.9329 42.0859 28.4946 42.0859 26.8875C42.0859 25.2804 43.3164 24.3477 45.1734 24.3477C46.5292 24.3477 47.5888 24.7073 48.4547 25.3928L47.3495 26.9325C46.6204 26.4155 45.8229 26.157 45.1165 26.157C44.581 26.157 44.319 26.3705 44.319 26.6627C44.319 27.0561 44.5924 27.1797 45.7089 27.4157C47.5318 27.7978 48.6711 28.2811 48.6711 29.7533C48.6711 31.3828 47.4065 32.3381 45.4469 32.3381C44.0341 32.3381 42.7012 31.8998 41.71 31.0344Z" fill="white"/>
<path d="M51.5535 26.4266H49.2407V24.4824H56.0766V26.4266H53.7638V32.2031H51.5535V26.4266Z" fill="white"/>
<path d="M56.9424 28.7754V24.4824H59.1526V28.6631C59.1526 29.652 59.7793 30.36 60.6679 30.36C61.5566 30.36 62.1832 29.652 62.1832 28.6631V24.4824H64.3934V28.7754C64.3934 30.8658 62.8554 32.338 60.6679 32.338C58.4804 32.338 56.9424 30.8658 56.9424 28.7754Z" fill="white"/>
<path d="M65.6812 24.4824H68.5978C71.3321 24.4824 73.2689 26.0783 73.2689 28.3372C73.2689 30.5961 71.3321 32.2031 68.5978 32.2031H65.6812V24.4824ZM68.9624 30.2252C70.1472 30.2252 70.9903 29.4385 70.9903 28.3372C70.9903 27.2358 70.1472 26.4604 68.9624 26.4604H67.8914V30.2252H68.9624Z" fill="white"/>
<path d="M74.3853 24.4824H76.5955V32.2031H74.3853V24.4824Z" fill="white"/>
<path d="M77.7007 28.3372C77.7007 26.1683 79.6489 24.3477 81.9617 24.3477C84.2745 24.3477 86.2227 26.1683 86.2227 28.3372C86.2227 30.5062 84.2745 32.3381 81.9617 32.3381C79.6489 32.3381 77.7007 30.5062 77.7007 28.3372ZM83.9441 28.3372C83.9441 27.2471 83.0326 26.3256 81.9617 26.3256C80.8907 26.3256 79.9793 27.2471 79.9793 28.3372C79.9793 29.4274 80.8907 30.3601 81.9617 30.3601C83.0326 30.3601 83.9441 29.4386 83.9441 28.3372Z" fill="white"/>
<path d="M27.3604 8.20039C25.8774 8.20039 24.4096 8.47573 23.0387 9.01891C21.6696 9.56022 20.424 10.3544 19.3758 11.3565L18.9884 11.7273L18.9011 11.201C18.4435 8.46262 16.9795 5.96959 14.773 4.16772C12.5646 2.36584 9.75626 1.375 6.85293 1.375H0V6.21496C0 9.30549 1.28362 12.2724 3.56983 14.462C5.85793 16.6516 8.96254 17.8822 12.2001 17.8822H16.0509V29.4127C14.8641 29.9671 14.0419 31.1583 14.0419 32.5388C14.0419 34.4512 15.6142 36.0021 17.5529 36.0021C19.4916 36.0021 21.0639 34.4512 21.0639 32.5388C21.0639 31.1565 20.2417 29.9671 19.053 29.4127V23.0012H23.7944C26.7965 23.0012 29.6732 21.8605 31.7942 19.832C33.9133 17.8035 35.1039 15.0539 35.1039 12.19V8.20226H27.3623L27.3604 8.20039ZM15.768 15.0258H12.202C9.76385 15.0258 7.42448 14.0986 5.70033 12.4485C3.97428 10.7964 3.00207 8.5544 3.00207 6.21496V4.22953H6.85293C9.29104 4.22953 11.6304 5.15669 13.3565 6.80684C15.0825 8.45887 16.0547 10.7009 16.0547 13.0403V15.0258H15.7718H15.768ZM32.1018 11.334V12.1881C32.1018 14.3009 31.2246 16.3275 29.6656 17.8185C28.1067 19.3094 25.9952 20.1467 23.7944 20.1467H19.053V19.0135C19.053 16.9007 19.9303 14.8741 21.4892 13.3831C23.0482 11.8922 25.1597 11.0549 27.3604 11.0549H32.1018V11.334Z" fill="white"/>
<path d="M16.1139 2.56608C16.2146 2.64849 16.3076 2.73465 16.4064 2.81894C16.7842 2.78897 17.1659 2.77024 17.5533 2.77024C21.0984 2.77024 24.3492 4.03642 26.8671 6.13236C27.0266 6.12674 27.1861 6.12112 27.3475 6.12112H30.8129C27.6437 2.38065 22.8795 0 17.5514 0C15.9601 0 14.4221 0.217274 12.96 0.612487C14.0879 1.12383 15.1512 1.77752 16.1139 2.5642V2.56608Z" fill="white"/>
<path d="M33.2604 21.3209C32.4325 22.1132 31.5135 22.7875 30.5299 23.3381C28.9538 26.483 26.2366 28.976 22.9155 30.289C23.2136 30.9802 23.3788 31.7406 23.3788 32.5386C23.3788 32.7259 23.3694 32.9113 23.3504 33.093C29.1798 31.0439 33.5661 25.9922 34.5953 19.8262C34.1928 20.3544 33.7465 20.8563 33.2604 21.3209Z" fill="white"/>
<path d="M3.08573 17.039C3.08573 16.9622 3.08953 16.8873 3.09143 16.8105C2.75154 16.5389 2.42114 16.2542 2.10403 15.9508C1.52299 15.3945 0.998904 14.7895 0.52989 14.1489C0.366589 15.0892 0.277344 16.0538 0.277344 17.039C0.277344 24.4432 5.06623 30.7404 11.7521 33.0911C11.735 32.9075 11.7236 32.724 11.7236 32.5366C11.7236 31.7387 11.8888 30.9783 12.1869 30.2871C6.85874 28.1799 3.08383 23.0384 3.08383 17.039H3.08573Z" fill="white"/>
</g>
<defs>
<clipPath id="clip0_38_5060">
<rect width="88" height="36" fill="white"/>
</clipPath>
</defs>
</svg>
