<svg width="57" height="57" viewBox="0 0 57 57" fill="none" xmlns="http://www.w3.org/2000/svg">
<g id="shelf 1" clip-path="url(#clip0_85_57)">
<path id="Vector" d="M56.1633 2.67709H48.0764V1.6734H49.9167C50.379 1.6734 50.7534 1.29854 50.7534 0.8367C50.7534 0.374428 50.379 0 49.9167 0H44.5626C44.1007 0 43.7259 0.374428 43.7259 0.8367C43.7259 1.29854 44.1007 1.6734 44.5626 1.6734H46.403V2.67709H35.5833V1.6734H37.4236C37.8859 1.6734 38.2603 1.29854 38.2603 0.8367C38.2603 0.374428 37.8859 0 37.4236 0H32.0695C31.6076 0 31.2328 0.374428 31.2328 0.8367C31.2328 1.29854 31.6076 1.6734 32.0695 1.6734H33.9099V2.67709H23.0901V1.6734H24.9305C25.3924 1.6734 25.7672 1.29854 25.7672 0.8367C25.7672 0.374428 25.3924 0 24.9305 0H19.5764C19.1141 0 18.7397 0.374428 18.7397 0.8367C18.7397 1.29854 19.1141 1.6734 19.5764 1.6734H21.4167V2.67709H10.597V1.6734H12.4374C12.8993 1.6734 13.2741 1.29854 13.2741 0.8367C13.2741 0.374428 12.8993 0 12.4374 0H7.08325C6.62098 0 6.24655 0.374428 6.24655 0.8367C6.24655 1.29854 6.62098 1.6734 7.08325 1.6734H8.92365V2.67709H0.8367C0.374428 2.67709 0 3.05152 0 3.51379V7.08325C0 7.54509 0.374428 7.91995 0.8367 7.91995H8.92365V9.00453C6.89278 9.39635 5.35419 11.1863 5.35419 13.3298V19.5764C5.35419 20.0382 5.72861 20.4131 6.19089 20.4131H13.3298C13.7916 20.4131 14.1665 20.0382 14.1665 19.5764V13.3298C14.1665 11.1863 12.6275 9.39635 10.597 9.00453V7.91995H21.4167V9.00453C19.3863 9.39635 17.8473 11.1863 17.8473 13.3298V19.5764C17.8473 20.0382 18.2217 20.4131 18.684 20.4131H25.8229C26.2847 20.4131 26.6596 20.0382 26.6596 19.5764V13.3298C26.6596 11.1863 25.1206 9.39635 23.0901 9.00453V7.91995H33.9099V9.00453C31.8794 9.39635 30.3404 11.1863 30.3404 13.3298V19.5764C30.3404 20.0382 30.7153 20.4131 31.1771 20.4131H38.316C38.7783 20.4131 39.1527 20.0382 39.1527 19.5764V13.3298C39.1527 11.1863 37.6137 9.39635 35.5833 9.00453V7.91995H46.403V9.00453C44.3725 9.39635 42.8335 11.1863 42.8335 13.3298V19.5764C42.8335 20.0382 43.2084 20.4131 43.6702 20.4131H50.8091C51.2714 20.4131 51.6458 20.0382 51.6458 19.5764V13.3298C51.6458 11.1863 50.1072 9.39635 48.0764 9.00453V7.91995H56.1633C56.6256 7.91995 57 7.54509 57 7.08325V3.51379C57 3.05152 56.6256 2.67709 56.1633 2.67709ZM12.4931 13.3298V18.7397H7.02759V13.3298C7.02759 11.823 8.2535 10.597 9.76035 10.597C11.2672 10.597 12.4931 11.823 12.4931 13.3298ZM24.9862 13.3298V18.7397H19.5207V13.3298C19.5207 11.823 20.7466 10.597 22.2534 10.597C23.7603 10.597 24.9862 11.823 24.9862 13.3298ZM37.4793 13.3298V18.7397H32.0138V13.3298C32.0138 11.823 33.2397 10.597 34.7466 10.597C36.2534 10.597 37.4793 11.823 37.4793 13.3298ZM49.9724 13.3298V18.7397H44.5069V13.3298C44.5069 11.823 45.7328 10.597 47.2397 10.597C48.7465 10.597 49.9724 11.823 49.9724 13.3298ZM55.3266 6.24655H1.6734V4.35049H55.3266V6.24655Z" fill="white"/>
<path id="Vector_2" d="M56.1633 51.7572H46.2916V38.5326C46.2916 37.5941 45.9263 36.7118 45.2623 36.0482L43.6145 34.4V28.4444H43.6702C44.1325 28.4444 44.5069 28.0695 44.5069 27.6077C44.5069 27.1458 44.1325 26.771 43.6702 26.771H43.6145V24.9306C43.6145 24.4687 43.2401 24.0939 42.7778 24.0939H39.2084C38.7465 24.0939 38.3717 24.4687 38.3717 24.9306V26.771H38.316C37.8542 26.771 37.4793 27.1458 37.4793 27.6077C37.4793 28.0695 37.8542 28.4444 38.316 28.4444H38.3717V34.4L36.7239 36.0482C36.0603 36.7118 35.6946 37.5941 35.6946 38.5326V51.7572H33.7985V38.5326C33.7985 37.5941 33.4328 36.7118 32.7692 36.0482L31.1214 34.4V28.4444H31.1771C31.6389 28.4444 32.0138 28.0695 32.0138 27.6077C32.0138 27.1458 31.6389 26.771 31.1771 26.771H31.1214V24.9306C31.1214 24.4687 30.7466 24.0939 30.2847 24.0939H26.7153C26.2534 24.0939 25.8786 24.4687 25.8786 24.9306V26.771H25.8229C25.3611 26.771 24.9862 27.1458 24.9862 27.6077C24.9862 28.0695 25.3611 28.4444 25.8229 28.4444H25.8786V34.4L24.2308 36.0482C23.5672 36.7118 23.2015 37.5941 23.2015 38.5326V51.7572H21.3054V38.5326C21.3054 37.5941 20.9397 36.7118 20.2761 36.0482L18.6283 34.4V28.4444H18.684C19.1458 28.4444 19.5207 28.0695 19.5207 27.6077C19.5207 27.1458 19.1458 26.771 18.684 26.771H18.6283V24.9306C18.6283 24.4687 18.2535 24.0939 17.7916 24.0939H14.2222C13.7599 24.0939 13.3855 24.4687 13.3855 24.9306V26.771H13.3298C12.8675 26.771 12.4931 27.1458 12.4931 27.6077C12.4931 28.0695 12.8675 28.4444 13.3298 28.4444H13.3855V34.4L11.7377 36.0482C11.0737 36.7118 10.7084 37.5941 10.7084 38.5326V51.7572H0.8367C0.374428 51.7572 0 52.132 0 52.5939V56.1633C0 56.6256 0.374428 57 0.8367 57H47.8533C48.3151 57 48.69 56.6256 48.69 56.1633C48.69 55.7015 48.3151 55.3266 47.8533 55.3266H1.6734V53.4306H55.3266V55.3266H51.7571C51.2953 55.3266 50.9209 55.7015 50.9209 56.1633C50.9209 56.6256 51.2953 57 51.7571 57H56.1633C56.6256 57 57 56.6256 57 56.1633V52.5939C57 52.132 56.6256 51.7572 56.1633 51.7572ZM37.368 40.9375H44.6182V48.1877H37.368V40.9375ZM40.0451 25.7673H41.9411V26.771H40.0451V25.7673ZM37.9068 37.231L39.8002 35.338C39.9568 35.1815 40.0451 34.9684 40.0451 34.7466V28.4444H41.9416V34.7466C41.9416 34.9684 42.0294 35.1815 42.1864 35.338L44.0794 37.231C44.4269 37.5789 44.6187 38.0412 44.6187 38.5326V39.2641H37.368V38.5326C37.368 38.0412 37.5593 37.5789 37.9068 37.231ZM24.8749 40.9375H32.1251V48.1877H24.8749V40.9375ZM27.552 25.7673H29.448V26.771H27.552V25.7673ZM25.4137 37.231L27.3067 35.338C27.4637 35.1815 27.552 34.9684 27.552 34.7466V28.4444H29.4485V34.7466C29.4485 34.9684 29.5363 35.1815 29.6933 35.338L31.5863 37.231C31.9338 37.5789 32.1256 38.0412 32.1256 38.5326V39.2641H24.8749V38.5326C24.8749 38.0412 25.0662 37.5789 25.4137 37.231ZM12.3818 40.9375H19.632V48.1877H12.3818V40.9375ZM15.0589 25.7673H16.9549V26.771H15.0589V25.7673ZM12.9206 37.231L14.8136 35.338C14.9706 35.1815 15.0589 34.9684 15.0589 34.7466V28.4444H16.9549V34.7466C16.9549 34.9684 17.0432 35.1815 17.2002 35.338L19.0932 37.231C19.4407 37.5789 19.6325 38.0412 19.6325 38.5326V39.2641H12.3818V38.5326C12.3818 38.0412 12.5731 37.5789 12.9206 37.231ZM12.3818 51.7572V49.8611H19.632V51.7572H12.3818ZM24.8749 51.7572V49.8611H32.1251V51.7572H24.8749ZM37.368 51.7572V49.8611H44.6182V51.7572H37.368Z" fill="white"/>
</g>
<defs>
<clipPath id="clip0_85_57">
<rect width="57" height="57" fill="white"/>
</clipPath>
</defs>
</svg>
