<svg width="64" height="64" viewBox="0 0 64 64" fill="none" xmlns="http://www.w3.org/2000/svg">
<g id="6_playground">
<path id="Vector" d="M19.9743 30.9105C22.2773 30.8982 24.1409 29.0148 24.1288 26.7117C24.1228 25.5961 23.6829 24.5496 22.8898 23.765C22.1022 22.9856 21.0601 22.5573 19.9528 22.5573C19.9453 22.5573 19.9376 22.5574 19.9299 22.5574C18.8143 22.5633 17.7678 23.0033 16.9831 23.7963C16.1984 24.5894 15.7696 25.6405 15.7755 26.7562C15.7814 27.8718 16.2214 28.9183 17.0144 29.703C17.8021 30.4823 18.8442 30.9107 19.9513 30.9107C19.9589 30.9106 19.9667 30.9105 19.9743 30.9105ZM17.6502 26.7461C17.647 26.1313 17.8833 25.552 18.3158 25.1149C18.7483 24.6779 19.325 24.4354 19.9399 24.4321C19.9442 24.432 19.9483 24.432 19.9526 24.432C20.5627 24.432 21.1372 24.6681 21.5712 25.0976C22.0083 25.53 22.2509 26.1068 22.254 26.7216C22.2573 27.3364 22.0209 27.9158 21.5885 28.3529C21.156 28.79 20.5792 29.0325 19.9644 29.0357C19.9602 29.0358 19.9561 29.0358 19.9518 29.0358C19.3416 29.0358 18.7672 28.7997 18.3331 28.3703C17.8961 27.9377 17.6535 27.3609 17.6502 26.7461Z" fill="white"/>
<path id="Vector_2" d="M63.919 41.7521C63.9168 41.3579 63.6684 41.0073 63.2972 40.8746C62.7974 40.6959 62.2851 40.5394 61.7693 40.406C61.883 39.7959 61.9408 39.1707 61.9374 38.5363C61.9088 33.1452 57.514 28.7793 52.1292 28.7793C52.1117 28.7793 52.0939 28.7793 52.0764 28.7795C49.4563 28.7933 46.9986 29.8267 45.1557 31.6892C43.6759 33.1848 42.7365 35.0716 42.4303 37.1134L40.9304 34.5866C39.9301 32.9016 38.0145 31.8552 35.93 31.8552C35.9286 31.8552 35.9271 31.8552 35.9256 31.8552L35.6694 31.8553L35.6466 27.5877L37.1979 27.5795C37.7156 27.5767 38.1331 27.1548 38.1303 26.6371C38.1276 26.1193 37.6999 25.702 37.188 25.7047L29.0637 25.7478C29.0637 25.7478 29.021 20.2109 29.0196 20.2031C29.0112 20.1565 28.9997 20.1111 28.9848 20.0673C28.9831 20.062 28.981 20.0569 28.9791 20.0517C28.945 19.9567 28.8961 19.8689 28.835 19.7911C28.8329 19.7884 28.8315 19.7853 28.8294 19.7827L21.883 11.1121C21.3894 10.496 20.6539 10.1431 19.8641 10.1492C19.8217 10.1495 19.7793 10.1507 19.7372 10.153C19.0046 10.1924 18.331 10.5381 17.8706 11.1145C17.8656 11.1208 17.8605 11.1271 17.8556 11.1335L14.0892 15.9385C13.218 15.1983 12.1107 14.7858 10.9494 14.7858C10.9408 14.7858 10.9319 14.7858 10.9234 14.7859C10.4475 14.7884 9.98292 14.8587 9.53523 14.9955C8.51185 14.0175 7.15702 13.4692 5.7227 13.4692C5.7127 13.4692 5.70257 13.4692 5.6927 13.4692C2.64495 13.4855 0.178504 15.9783 0.194628 19.0265C0.195002 19.1011 0.197002 19.1763 0.200252 19.2521C0.319237 21.9147 2.52672 23.991 5.23176 23.9909C5.24101 23.9909 5.2505 23.9909 5.25988 23.9908L10.8331 23.9612L10.8518 26.0853C10.8563 26.603 11.2811 27.0214 11.7975 27.0143C12.3151 27.0097 12.7311 26.5863 12.7265 26.0687L12.6851 21.3881L27.1654 21.3112L27.2248 32.4785L12.7411 32.5554L12.7266 29.8216C12.7238 29.3056 12.3046 28.8892 11.7893 28.8892C11.7876 28.8892 11.786 28.8892 11.7842 28.8892C11.2665 28.8919 10.8491 29.3139 10.8518 29.8316L10.8713 33.5028L10.8903 37.0752C10.8903 37.0769 10.8906 37.0786 10.8906 37.0802C10.8906 37.0817 10.8903 37.0832 10.8904 37.0847L10.9482 40.7897C10.4985 40.4464 10.0215 40.2735 9.51848 40.2735C9.51461 40.2735 9.51061 40.2735 9.50673 40.2735C6.5191 40.2893 5.28675 46.4139 4.98191 48.2707C2.42835 48.5738 0.447596 50.758 0.46147 53.3893C0.466094 54.2691 0.692441 55.1136 1.10764 55.8576C0.899666 55.9512 0.707939 56.0817 0.54271 56.2487C0.190128 56.605 -0.00259822 57.0774 2.64591e-05 57.5787L0.0086504 59.2143C0.0142747 60.2458 0.855046 61.0812 1.88529 61.0811H1.89542L62.133 60.7611C63.1678 60.7555 64.0053 59.9091 63.9998 58.8744L63.919 41.7521ZM62.048 42.4333L62.119 55.3726C62.1141 55.3726 62.1094 55.3718 62.1045 55.3719L61.1035 55.3773L61.0838 51.6568C61.0824 51.4082 60.9824 51.1703 60.8057 50.9953C60.6289 50.8205 60.386 50.7195 60.1414 50.7244L53.031 50.7623L53.0183 48.3554C55.3211 48.1496 57.4565 47.1499 59.1013 45.4875C60.0449 44.5338 60.7678 43.4204 61.2484 42.2098C61.5162 42.278 61.7836 42.351 62.048 42.4333ZM27.2347 34.3533L27.2386 35.0816L27.2383 36.0509L23.2463 36.0722C23.2445 36.0722 23.2429 36.0722 23.2412 36.0722C23.2409 36.0722 23.2408 36.0722 23.2405 36.0722L16.338 36.1089C16.3378 36.1089 16.3376 36.1089 16.3374 36.1089C16.3371 36.1089 16.337 36.1089 16.3368 36.1089L12.7601 36.1279L12.7511 34.4301L27.2347 34.3533ZM22.3458 44.0052L17.326 44.0318L17.3125 41.9426L22.3347 41.916L22.3458 44.0052ZM17.3381 45.9067L22.3556 45.8801L22.3668 47.9693L17.3516 47.9958L17.3381 45.9067ZM22.3247 40.0412L17.3004 40.0678L17.2869 37.9786L22.3137 37.952L22.3247 40.0412ZM14.4173 51.0891C14.3553 49.0378 13.8947 46.5671 13.1887 44.5385C13.0847 44.2397 12.9777 43.9573 12.8682 43.6895L12.7796 38.0026L15.412 37.9886L15.4985 51.3571C15.1605 51.2156 14.797 51.1236 14.4173 51.0891ZM17.3811 53.1198C17.3829 53.0957 17.3845 53.0716 17.3844 53.0471L17.3638 49.8706L22.3766 49.8441L22.4071 55.5829L17.6675 55.6082C17.7342 55.3259 17.7683 55.0347 17.7668 54.7396C17.7637 54.1578 17.6247 53.6083 17.3811 53.1198ZM24.282 55.5729L24.1884 37.942L27.2537 37.9257L27.3473 55.5567L24.282 55.5729ZM29.2221 55.5467L29.1304 38.2975L33.4055 38.2947H33.4079C34.5368 38.2947 35.563 38.8421 36.0862 39.7236L41.1672 48.2829C40.4855 48.1311 39.7878 48.055 39.075 48.0566C34.6414 48.0802 30.8319 51.2188 29.9508 55.5428L29.2221 55.5467ZM39.0848 49.9314C40.1208 49.9291 41.1283 50.1301 42.0777 50.5382C42.2307 50.6039 42.3919 50.6249 42.5474 50.6081L44.849 54.4853C45.0599 54.8405 45.3132 55.1652 45.5979 55.4597L31.8762 55.5325C32.721 52.2753 35.6716 49.9495 39.0848 49.9314ZM51.155 50.5447C50.5347 50.3067 50.013 49.8872 49.6863 49.3368L48.7792 47.8086C49.5374 48.0838 50.3302 48.2664 51.1434 48.3474L51.155 50.5447ZM53.0409 52.637L59.214 52.6042L59.2282 55.2922L53.0551 55.3249L53.0409 52.637ZM44.1943 38.6306C44.1831 36.5114 44.9977 34.5145 46.4883 33.0081C47.9789 31.5015 49.967 30.6656 52.0862 30.6544C52.1006 30.6542 52.1145 30.6542 52.129 30.6542C56.4842 30.6542 60.0393 34.1859 60.0625 38.5463C60.0738 40.6656 59.2591 42.6624 57.7684 44.1688C56.4761 45.475 54.8097 46.2759 53.0081 46.4735L52.9798 41.1408L55.3855 38.7094C55.7495 38.3414 55.7464 37.7479 55.3783 37.3838C55.0105 37.0198 54.417 37.0227 54.0528 37.3909L52.9656 38.4895L52.9585 37.1422C52.9558 36.6245 52.5291 36.2099 52.0161 36.2098C51.4984 36.2125 51.081 36.6345 51.0837 37.1522L51.1039 40.9441L50.0897 39.9407C49.7217 39.5766 49.1282 39.5799 48.7641 39.9478C48.4001 40.3158 48.4032 40.9093 48.7713 41.2734L51.118 43.5954L51.1332 46.4588C49.5166 46.2564 48.0052 45.5633 46.787 44.4528L44.4169 40.4603C44.273 39.8647 44.1976 39.2498 44.1943 38.6306ZM35.9269 33.7302H35.9299C37.3558 33.7302 38.654 34.425 39.3181 35.5439L45.2243 45.4934C45.2356 45.5144 45.248 45.5348 45.2608 45.555L48.074 50.2941C48.737 51.411 49.8641 52.1973 51.1651 52.5008L51.1801 55.3351L49.8723 55.3421C49.8644 55.3421 49.8568 55.3421 49.849 55.3421C48.4226 55.3421 47.1259 54.6486 46.4609 53.5284L37.698 38.7667C36.8386 37.319 35.1949 36.4201 33.4075 36.4201C33.4064 36.4201 33.405 36.4201 33.404 36.4201L29.1202 36.423L29.1131 35.0774L29.1134 33.735L35.9269 33.7302ZM33.7945 31.8568L32.388 31.8578L32.3654 27.6054L33.7719 27.5979L33.7945 31.8568ZM30.4906 27.6153L30.5131 31.8592L29.0961 31.8602L29.0736 27.623L30.4906 27.6153ZM19.331 12.2902C19.5112 12.0603 19.7485 12.0248 19.874 12.0241C20.0011 12.027 20.237 12.0565 20.4198 12.2845L26.1538 19.4419L13.6732 19.5081L19.331 12.2902ZM5.24988 22.116C3.56659 22.1255 2.14614 20.8027 2.07315 19.1688C2.0709 19.1175 2.06965 19.0664 2.06927 19.0162C2.05865 17.002 3.68857 15.3547 5.70257 15.344H5.72232C6.82356 15.344 7.85431 15.8338 8.5531 16.6897C8.82544 17.0234 9.29001 17.1286 9.67946 16.9447C10.0738 16.7586 10.4956 16.6631 10.9334 16.6607C11.6773 16.6551 12.3841 16.9284 12.9307 17.4167L11.0015 19.8776C10.9992 19.8807 10.9975 19.8842 10.9952 19.8873C10.9677 19.9233 10.9429 19.961 10.9211 20.0004C10.9184 20.0052 10.9154 20.0095 10.9128 20.0143C10.8913 20.0544 10.8736 20.0963 10.8582 20.1391C10.8551 20.1478 10.8519 20.1564 10.8491 20.165C10.8352 20.2074 10.8163 22.0865 10.8163 22.0865L5.24988 22.116ZM8.07978 44.046C8.69071 42.656 9.27376 42.1497 9.51661 42.1483H9.51761C9.84844 42.1483 10.6556 42.9636 11.4181 45.1546C11.9963 46.8159 12.4034 48.8685 12.5169 50.6158C11.9323 50.3122 11.2779 50.1483 10.6028 50.1483C10.5955 50.1483 10.588 50.1485 10.5806 50.1485C10.2708 50.1501 9.96605 50.1854 9.66896 50.2541C8.96567 49.3302 7.97392 48.6789 6.85956 48.3947C7.12777 46.78 7.56322 45.2211 8.07978 44.046ZM5.57222 50.1086H5.58971C6.78619 50.1086 7.88231 50.7621 8.45311 51.8171C8.68708 52.2497 9.21539 52.4278 9.66384 52.2253C9.95668 52.093 10.2685 52.0248 10.5907 52.0232C11.2638 52.0216 11.8984 52.3108 12.3366 52.822C12.599 53.1278 13.0274 53.2318 13.4008 53.0805C13.6147 52.9937 13.8402 52.9491 14.0713 52.948H14.0812C15.0754 52.948 15.8871 53.7543 15.8923 54.7496C15.8939 55.056 15.8177 55.3539 15.6746 55.6188L3.31337 55.6844C2.69357 55.0783 2.34099 54.2566 2.33624 53.3796C2.32649 51.5854 3.77831 50.1181 5.57222 50.1086ZM62.123 58.8865L1.88342 59.2045L1.8768 57.5668L2.77056 57.562C2.84568 57.5812 2.92254 57.5942 3.00103 57.5942H3.00603L62.1165 57.2488L62.1245 58.8865C62.1245 58.8865 62.124 58.8865 62.123 58.8865Z" fill="white"/>
<path id="Vector_3" d="M37.4237 14.9795H37.44L42.6104 14.9521C43.1281 14.9493 43.5455 14.5275 43.5428 14.0097C43.54 13.4936 43.1208 13.0773 42.6055 13.0773C42.6038 13.0773 42.6022 13.0773 42.6005 13.0773L37.43 13.1047C37.4279 13.1047 37.4259 13.1047 37.4238 13.1047C36.8066 13.1047 36.2994 12.6205 36.2922 12.0192L36.2921 12.0061C36.2852 10.7155 37.3302 9.63824 38.6215 9.60474C39.0728 9.59299 39.4518 9.26116 39.5228 8.81534C39.8925 6.49762 41.8669 4.80633 44.2176 4.79383H44.244C46.5947 4.79383 48.5753 6.46962 48.959 8.78771C49.0417 9.2874 49.5066 9.63124 50.0082 9.56374C50.1291 9.54762 50.2267 9.53987 50.3155 9.53937H50.3281C51.169 9.53937 51.9571 9.98894 52.3875 10.7146C52.5563 10.9994 52.8629 11.174 53.1939 11.174H53.1989L55.769 11.1604H55.774C56.281 11.1604 56.6948 11.5715 56.6974 12.0791C56.7002 12.5884 56.288 13.0048 55.7788 13.0076L45.8534 13.0603C45.3431 13.0631 44.9286 13.4736 44.9211 13.9839C44.9136 14.4943 45.3157 14.9168 45.8258 14.9346L46.3227 14.9518C46.4023 14.9545 46.4792 14.9475 46.5534 14.9315L55.7888 14.8825C57.3317 14.8742 58.5803 13.6122 58.5722 12.0693C58.5639 10.5312 57.3103 9.2859 55.7742 9.2859C55.7692 9.2859 55.7639 9.2859 55.7589 9.2859L53.6832 9.2969C52.9408 8.35464 51.8251 7.75984 50.6243 7.67523C49.7996 4.87157 47.2377 2.91931 44.2445 2.91931C44.2325 2.91931 44.22 2.91931 44.2078 2.91944C41.1777 2.93556 38.5965 4.95619 37.8222 7.81821C35.8779 8.22366 34.4067 9.97007 34.4175 12.0189L34.4179 12.0459C34.4373 13.6666 35.7844 14.9795 37.4237 14.9795Z" fill="white"/>
</g>
</svg>
