<svg width="54" height="54" viewBox="0 0 54 54" fill="none" xmlns="http://www.w3.org/2000/svg">
<g id="3_service" clip-path="url(#clip0_38_2411)">
<g id="Group">
<path id="Vector" d="M37.4335 42.6779L47.3474 40.2841C50.4201 39.6008 51.2183 43.2817 48.7278 44.1818C47.0157 44.7804 39.3134 48.0696 34.0107 50.0578C30.1964 51.4879 29.0429 51.679 25.0261 51.4875L18.9197 51.1963L17.8191 52.9454M3.79688 52.9454L7.34483 46.6106C12.8935 36.4301 22.4815 41.4205 27.191 40.9854C28.1988 40.8922 34.3107 40.1964 35.3186 40.1032C36.3703 40.0061 37.3081 40.8166 37.4023 41.9045C37.4965 42.9924 36.6352 43.6376 35.6612 44.0592C33.1072 45.165 30.329 46.1294 27.9986 46.6767" stroke="white" stroke-width="2.2" stroke-miterlimit="2.6131" stroke-linecap="round" stroke-linejoin="round"/>
<path id="Vector_2" fill-rule="evenodd" clip-rule="evenodd" d="M52.9453 29.4967C52.9453 32.107 50.8096 34.2428 48.1992 34.2428H5.80076C3.19042 34.2428 1.05469 32.107 1.05469 29.4967H52.9453Z" stroke="white" stroke-width="2.2" stroke-miterlimit="22.9256" stroke-linecap="round" stroke-linejoin="round"/>
<path id="Vector_3" d="M3.16797 29.0808C3.39494 16.0807 13.9982 5.66089 27.0002 5.66089C40.0023 5.66089 50.6055 16.0807 50.8324 29.0808" stroke="white" stroke-width="2.2" stroke-miterlimit="22.9256" stroke-linecap="round" stroke-linejoin="round"/>
<path id="Vector_4" d="M10.4678 19.9519C12.1432 17.0498 14.5531 14.6399 17.4552 12.9645" stroke="white" stroke-width="2.2" stroke-miterlimit="22.9256" stroke-linecap="round" stroke-linejoin="round"/>
<path id="Vector_5" fill-rule="evenodd" clip-rule="evenodd" d="M26.9999 5.66091C28.2684 5.66091 29.3029 4.62637 29.3029 3.3578C29.3029 2.08933 28.2684 1.05469 26.9999 1.05469C25.7314 1.05469 24.6968 2.08923 24.6968 3.3578C24.6968 4.62627 25.7314 5.66091 26.9999 5.66091Z" stroke="white" stroke-width="2.2" stroke-miterlimit="22.9256" stroke-linecap="round" stroke-linejoin="round"/>
</g>
</g>
<defs>
<clipPath id="clip0_38_2411">
<rect width="54" height="54" fill="white"/>
</clipPath>
</defs>
</svg>
