<svg width="64" height="64" viewBox="0 0 64 64" fill="none" xmlns="http://www.w3.org/2000/svg">
<g id="5_shisha">
<path id="Vector" d="M38.6681 62.2703H24.8009C23.643 62.294 22.4942 62.0619 21.4363 61.5905C20.3785 61.1192 19.4377 60.4201 18.6811 59.5433C17.8926 58.5707 17.342 57.4274 17.0732 56.2044C16.8044 54.9815 16.8249 53.7127 17.133 52.499C17.4513 51.0349 18.0882 49.659 18.9986 48.4689C19.9089 47.2789 21.0702 46.3041 22.4 45.6138C23.222 45.2385 23.9507 44.6859 24.5339 43.9957C25.1171 43.3055 25.5402 42.4947 25.773 41.6216C25.8254 41.442 25.9346 41.2842 26.0843 41.1719C26.2341 41.0596 26.4161 40.9989 26.6033 40.9989H36.8606C37.0477 40.9989 37.2298 41.0596 37.3795 41.1719C37.5292 41.2842 37.6384 41.442 37.6908 41.6216C37.9243 42.4951 38.3483 43.3061 38.9324 43.9964C39.5165 44.6866 40.2461 45.239 41.069 45.6138C42.398 46.3043 43.5586 47.2792 44.4682 48.469C45.3778 49.6589 46.014 51.0345 46.3317 52.4981C46.64 53.7119 46.6607 54.9808 46.3921 56.2039C46.1235 57.427 45.573 58.5705 44.7845 59.5433C44.0282 60.4197 43.088 61.1184 42.0308 61.5898C40.9736 62.0611 39.8254 62.2935 38.6681 62.2703ZM27.2303 42.7286C26.8823 43.708 26.3401 44.607 25.6361 45.3717C24.9321 46.1363 24.0808 46.7509 23.1334 47.1784C22.0411 47.7534 21.0886 48.5618 20.3437 49.5462C19.5987 50.5306 19.0795 51.6668 18.8229 52.8744C18.5751 53.8305 18.5537 54.8312 18.7605 55.797C18.9672 56.7629 19.3964 57.6671 20.0139 58.438C20.6079 59.1192 21.3449 59.6608 22.1724 60.0242C22.9999 60.3877 23.8974 60.564 24.8009 60.5405H38.6681C39.5717 60.5635 40.4692 60.3871 41.2967 60.0237C42.1243 59.6603 42.8616 59.1189 43.456 58.438C44.0736 57.667 44.5027 56.7625 44.7093 55.7965C44.9159 54.8305 44.8942 53.8297 44.6461 52.8735C44.389 51.6663 43.8696 50.5303 43.1248 49.5461C42.3799 48.562 41.4276 47.7536 40.3356 47.1784C39.3919 46.745 38.5437 46.1285 37.8402 45.3647C37.1368 44.6008 36.5921 43.7048 36.2379 42.7286H27.2303Z" fill="white"/>
<path id="Vector_2" d="M36.2326 42.7287H27.238C26.5345 42.7287 25.8598 42.4492 25.3624 41.9518C24.8649 41.4543 24.5854 40.7796 24.5854 40.0761C24.5854 39.3726 24.8649 38.6979 25.3624 38.2005C25.8598 37.703 26.5345 37.4236 27.238 37.4236H36.2326C36.9361 37.4236 37.6108 37.703 38.1082 38.2005C38.6057 38.6979 38.8851 39.3726 38.8851 40.0761C38.8851 40.7796 38.6057 41.4543 38.1082 41.9518C37.6108 42.4492 36.9361 42.7287 36.2326 42.7287ZM27.238 39.1533C26.9932 39.1533 26.7585 39.2505 26.5855 39.4236C26.4124 39.5967 26.3152 39.8314 26.3152 40.0761C26.3152 40.3209 26.4124 40.5556 26.5855 40.7287C26.7585 40.9017 26.9932 40.9989 27.238 40.9989H36.2326C36.4773 40.9989 36.7121 40.9017 36.8851 40.7287C37.0582 40.5556 37.1554 40.3209 37.1554 40.0761C37.1554 39.8314 37.0582 39.5967 36.8851 39.4236C36.7121 39.2505 36.4773 39.1533 36.2326 39.1533H27.238Z" fill="white"/>
<path id="Vector_3" d="M36.2767 39.1533H27.1956C27.0096 39.1534 26.8286 39.0935 26.6794 38.9826C26.5301 38.8717 26.4206 38.7156 26.367 38.5375C26.3221 38.3853 25.2885 34.7719 28.7956 30.9916C28.8766 30.9045 28.9747 30.835 29.0838 30.7875C29.1929 30.7401 29.3106 30.7156 29.4295 30.7157H34.0462C34.1653 30.7155 34.2831 30.7399 34.3924 30.7874C34.5016 30.8348 34.5999 30.9044 34.681 30.9916C38.1863 34.7719 37.1545 38.3853 37.1087 38.5375C37.0549 38.7162 36.9449 38.8727 36.7949 38.9836C36.645 39.0946 36.4632 39.1541 36.2767 39.1533ZM27.9264 37.4236H35.5458C35.5797 36.5098 35.4302 35.5985 35.1061 34.7435C34.7819 33.8885 34.2898 33.1071 33.6587 32.4454H29.8127C29.1821 33.1074 28.6903 33.8889 28.3664 34.7439C28.0424 35.5988 27.8928 36.5099 27.9264 37.4236Z" fill="white"/>
<path id="Vector_4" d="M34.0413 32.4479H29.4281C29.2086 32.4485 28.9971 32.3655 28.8365 32.2158C28.6759 32.0661 28.5782 31.8609 28.5633 31.6419C28.4703 30.5378 28.4975 29.4268 28.6446 28.3286C28.9214 26.5543 28.8032 24.7408 28.2986 23.0175C27.189 19.5154 26.8007 15.8249 27.157 12.1686C27.1872 11.9412 27.3064 11.735 27.4886 11.5956C27.6707 11.4561 27.9008 11.3946 28.1282 11.4248C28.3557 11.455 28.5618 11.5742 28.7013 11.7564C28.8408 11.9385 28.9022 12.1686 28.872 12.3961C28.5488 15.8116 28.9192 19.2573 29.9609 22.5262C30.5361 24.4921 30.6711 26.5606 30.3561 28.5846C30.2568 29.2912 30.2212 30.0053 30.2498 30.7182H33.2162C33.2444 30.0047 33.2088 29.2901 33.1099 28.5829C32.7959 26.5603 32.9309 24.4934 33.5051 22.5288C34.5477 19.2592 34.9184 15.8126 34.5948 12.3961C34.5768 12.2821 34.5818 12.1656 34.6094 12.0536C34.6371 11.9416 34.6869 11.8362 34.7559 11.7437C34.8249 11.6512 34.9117 11.5735 35.0112 11.515C35.1107 11.4566 35.2209 11.4187 35.3353 11.4035C35.4497 11.3883 35.566 11.3962 35.6773 11.4266C35.7886 11.4571 35.8927 11.5095 35.9834 11.5808C36.0742 11.6521 36.1497 11.7408 36.2056 11.8418C36.2615 11.9427 36.2967 12.0539 36.309 12.1686C36.6661 15.8253 36.2771 19.5164 35.1656 23.0183C34.6615 24.7409 34.5434 26.5534 34.8197 28.3269C34.9663 29.4254 34.9936 30.5366 34.901 31.641C34.8863 31.8593 34.7895 32.0639 34.63 32.2137C34.4705 32.3634 34.2601 32.4471 34.0413 32.4479Z" fill="white"/>
<path id="Vector_5" d="M36.7188 13.1459H26.7504C25.3951 13.1445 24.0957 12.6056 23.1373 11.6473C22.1789 10.6891 21.6398 9.38981 21.6382 8.03454V7.86157C21.6382 7.63219 21.7293 7.41221 21.8915 7.25002C22.0537 7.08782 22.2737 6.9967 22.503 6.9967H40.9662C41.1956 6.9967 41.4155 7.08782 41.5777 7.25002C41.7399 7.41221 41.8311 7.63219 41.8311 7.86157V8.03454C41.8294 9.38981 41.2903 10.6891 40.3319 11.6473C39.3735 12.6056 38.0741 13.1445 36.7188 13.1459ZM23.438 8.72557C23.5978 9.48589 24.0142 10.1682 24.6173 10.658C25.2203 11.1479 25.9735 11.4155 26.7504 11.4162H36.7188C37.4958 11.4153 38.2488 11.1474 38.8517 10.6574C39.4546 10.1674 39.8707 9.48504 40.0304 8.7247L23.438 8.72557Z" fill="white"/>
<path id="Vector_6" d="M36.4159 8.63482H27.0529C26.8235 8.63482 26.6035 8.5437 26.4413 8.3815C26.2791 8.21931 26.188 7.99933 26.188 7.76995V2.5946C26.188 2.36522 26.2791 2.14524 26.4413 1.98305C26.6035 1.82086 26.8235 1.72974 27.0529 1.72974H36.4159C36.6453 1.72974 36.8652 1.82086 37.0274 1.98305C37.1896 2.14524 37.2807 2.36522 37.2807 2.5946V7.76995C37.2807 7.99933 37.1896 8.21931 37.0274 8.3815C36.8652 8.5437 36.6453 8.63482 36.4159 8.63482ZM27.9177 6.90509H35.551V3.45947H27.9177V6.90509Z" fill="white"/>
<path id="Vector_7" d="M20.9781 48.4653C20.832 48.4653 20.6883 48.4284 20.5603 48.3579C20.4324 48.2875 20.3244 48.1857 20.2464 48.0622L16.7956 42.6136C16.4599 42.097 16.2817 41.4939 16.2827 40.8778C16.2817 40.183 16.5057 39.5066 16.9211 38.9497C17.3364 38.3927 17.921 37.9852 18.5872 37.7881C19.2534 37.591 19.9656 37.6148 20.6171 37.8561C21.2687 38.0973 21.8246 38.543 22.2019 39.1265L25.5835 44.4748C25.6442 44.5708 25.6854 44.6779 25.7047 44.7898C25.7241 44.9018 25.7212 45.0164 25.6962 45.1272C25.6712 45.2381 25.6246 45.3429 25.5591 45.4357C25.4937 45.5286 25.4105 45.6076 25.3145 45.6683C25.2185 45.729 25.1114 45.7702 24.9995 45.7895C24.8875 45.8089 24.7729 45.806 24.662 45.781C24.5512 45.756 24.4464 45.7095 24.3536 45.644C24.2607 45.5785 24.1817 45.4953 24.121 45.3993L20.7428 40.0571C20.5274 39.7298 20.1916 39.5007 19.8082 39.4198C19.4249 39.3388 19.025 39.4124 18.6957 39.6246C18.4853 39.7597 18.3124 39.9457 18.193 40.1654C18.0736 40.385 18.0115 40.6312 18.0124 40.8813C18.0127 41.166 18.0956 41.4445 18.2512 41.683L21.7106 47.1446C21.7934 47.2754 21.8396 47.4259 21.8444 47.5806C21.8492 47.7353 21.8124 47.8884 21.7378 48.024C21.6632 48.1596 21.5536 48.2727 21.4205 48.3516C21.2873 48.4304 21.1354 48.4721 20.9807 48.4722L20.9781 48.4653Z" fill="white"/>
<path id="Vector_8" d="M18.2236 39.7578C18.0524 39.758 17.885 39.7074 17.7426 39.6124C17.6002 39.5174 17.4892 39.3823 17.4236 39.2242C17.4236 39.2242 17.376 39.1074 17.3016 38.8946C16.744 37.2758 16.6164 35.5399 16.9313 33.8569C17.2462 32.174 17.9927 30.6016 19.0979 29.2938C20.203 27.9861 21.6288 26.9878 23.2357 26.3966C24.8426 25.8055 26.5755 25.6419 28.2647 25.9217C29.3449 26.1033 30.5047 26.3411 31.6255 26.5721C36.2474 27.5234 41.485 28.5941 43.2381 26.1145C43.7098 25.4863 44.0498 24.7692 44.2376 24.0064C44.4255 23.2436 44.4573 22.4506 44.3313 21.6752C44.2942 21.4488 44.3486 21.217 44.4825 21.0307C44.6164 20.8444 44.8188 20.7189 45.0452 20.6819C45.2716 20.6448 45.5034 20.6993 45.6897 20.8331C45.876 20.967 46.0015 21.1694 46.0385 21.3958C46.2042 22.3931 46.167 23.4135 45.9292 24.3961C45.6915 25.3786 45.258 26.3031 44.6547 27.1143C42.2469 30.5167 36.672 29.3725 31.2822 28.2663C30.1241 28.0285 29.0335 27.8036 27.9819 27.6272C26.5889 27.3966 25.1599 27.5315 23.8347 28.0188C22.5095 28.506 21.3334 29.329 20.4217 30.4071C19.5099 31.4852 18.8936 32.7815 18.6331 34.1692C18.3725 35.5569 18.4767 36.9885 18.9354 38.3238C18.9855 38.4709 19.0219 38.5556 19.0219 38.566C19.0755 38.6973 19.096 38.8399 19.0815 38.981C19.0671 39.1221 19.0181 39.2575 18.939 39.3753C18.8599 39.4931 18.753 39.5895 18.6278 39.6562C18.5026 39.7229 18.3629 39.7578 18.221 39.7578H18.2236Z" fill="white"/>
<path id="Vector_9" d="M45.1635 22.4C44.5129 22.3998 43.889 22.1414 43.4288 21.6815C42.9685 21.2216 42.7097 20.5979 42.709 19.9473L42.8058 16.0952C42.7995 15.6371 42.9247 15.1869 43.1665 14.7979C43.3813 14.4466 43.6809 14.155 44.0379 13.9499C44.3949 13.7448 44.7977 13.6328 45.2093 13.6242C45.8595 13.6135 46.488 13.8582 46.9598 14.3058C47.1935 14.528 47.3808 14.7944 47.5109 15.0895C47.6409 15.3846 47.7111 15.7027 47.7174 16.0251L47.6197 19.9663C47.6134 20.6079 47.3567 21.2217 46.9043 21.6767C46.4519 22.1317 45.8396 22.3919 45.1981 22.4018H45.1635V22.4ZM45.2629 15.3522H45.2465C45.1248 15.355 45.0057 15.3881 44.8999 15.4485C44.7942 15.5089 44.7053 15.5947 44.6411 15.6982C44.569 15.8162 44.5329 15.9526 44.5373 16.0908L44.4404 19.9646C44.4447 20.1512 44.5224 20.3287 44.6567 20.4584C44.7923 20.5923 44.9754 20.6672 45.1661 20.6668H45.1747C45.3655 20.6634 45.5473 20.5855 45.6813 20.4497C45.8153 20.314 45.8908 20.1311 45.8917 19.9403L45.9894 16.0165C45.9762 15.8384 45.8962 15.6719 45.7654 15.5503C45.6297 15.4223 45.4495 15.3522 45.2629 15.3548V15.3522Z" fill="white"/>
<path id="Vector_10" d="M45.2325 15.3548C45.0032 15.3548 44.7832 15.2637 44.621 15.1015C44.4588 14.9393 44.3677 14.7193 44.3677 14.49V13.3008C44.3677 13.0714 44.4588 12.8514 44.621 12.6892C44.7832 12.527 45.0032 12.4359 45.2325 12.4359C45.4619 12.4359 45.6819 12.527 45.8441 12.6892C46.0063 12.8514 46.0974 13.0714 46.0974 13.3008V14.49C46.0974 14.7193 46.0063 14.9393 45.8441 15.1015C45.6819 15.2637 45.4619 15.3548 45.2325 15.3548Z" fill="white"/>
</g>
</svg>
