<svg width="64" height="64" viewBox="0 0 64 64" fill="none" xmlns="http://www.w3.org/2000/svg">
<g id="2_grill">
<g id="Group">
<g id="Group_2">
<path id="Vector" d="M36.8963 19.6753C36.687 19.4662 36.5719 19.1881 36.5719 18.8922C36.5719 18.5963 36.687 18.3182 36.8963 18.1091C37.2624 17.743 37.2624 17.1494 36.8963 16.7832C36.53 16.4171 35.9365 16.4172 35.5704 16.7831C35.007 17.3465 34.6968 18.0955 34.6968 18.8922C34.6968 19.689 35.007 20.438 35.5703 21.0012C36.0021 21.4331 36.0021 22.1358 35.5704 22.5677C35.2044 22.9337 35.2044 23.5273 35.5705 23.8934C35.7535 24.0764 35.9935 24.1681 36.2334 24.1681C36.4733 24.1681 36.7133 24.0766 36.8963 23.8934C38.0593 22.7306 38.0593 20.8383 36.8963 19.6753Z" fill="white"/>
</g>
</g>
<g id="Group_3">
<g id="Group_4">
<path id="Vector_2" d="M46.1266 19.6753C45.9175 19.466 45.8022 19.1879 45.8022 18.892C45.8022 18.5961 45.9175 18.318 46.1266 18.1088C46.4927 17.7426 46.4927 17.149 46.1266 16.7829C45.7605 16.4168 45.1669 16.4168 44.8009 16.7829C43.638 17.9458 43.638 19.838 44.8009 21.0009C45.01 21.2102 45.1252 21.4884 45.1252 21.7842C45.1252 22.0801 45.01 22.3582 44.8007 22.5674C44.4346 22.9335 44.4346 23.5271 44.8007 23.8932C44.9839 24.0762 45.2237 24.1679 45.4637 24.1679C45.7036 24.1679 45.9436 24.0764 46.1266 23.8934C46.69 23.33 47.0002 22.581 47.0002 21.7844C47.0002 20.9878 46.6899 20.2386 46.1266 19.6753Z" fill="white"/>
</g>
</g>
<g id="Group_5">
<g id="Group_6">
<path id="Vector_3" d="M51.5001 29.9408H50.2752C50.2828 29.8681 50.2871 29.7945 50.2871 29.7199V27.9954C50.2871 26.8398 49.3469 25.8995 48.1912 25.8995H46.7631C46.2454 25.8995 45.8256 26.3193 45.8256 26.837C45.8256 27.3548 46.2454 27.7745 46.7631 27.7745H48.1912C48.313 27.7745 48.4121 27.8735 48.4121 27.9954V29.7199C48.4121 29.8416 48.313 29.9408 48.1912 29.9408H30.6283C30.5065 29.9408 30.4074 29.8418 30.4074 29.7199V27.9954C30.4074 27.8736 30.5064 27.7745 30.6283 27.7745H42.3389C42.8566 27.7745 43.2764 27.3548 43.2764 26.837C43.2764 26.3193 42.8566 25.8995 42.3389 25.8995H30.6283C29.4727 25.8995 28.5324 26.8396 28.5324 27.9954V29.7199C28.5324 29.7945 28.5367 29.8681 28.5443 29.9408H20.4383C20.38 29.7528 20.3041 29.5725 20.2135 29.4011L42.1784 7.43622C42.9761 6.63847 42.9761 5.3406 42.1784 4.54286L41.1708 3.53524C38.8911 1.25549 35.86 0 32.6359 0C29.4118 0 26.3807 1.2555 24.1009 3.53536L22.9138 4.72248L22.2196 4.02823C21.3508 3.15949 19.9928 3.10386 19.1921 3.90448L15.3256 7.77097C14.525 8.57159 14.5805 9.92971 15.4494 10.7985L16.1436 11.4927L14.9564 12.68C10.3681 17.2683 10.2554 24.6605 14.6137 29.3894C14.3762 29.8336 14.2412 30.3404 14.2412 30.8783C14.2412 32.3036 15.1872 33.512 16.4842 33.9092C16.4909 34.072 16.5004 34.2341 16.5135 34.3951H13.0752C11.6295 34.3951 10.4531 35.5714 10.4531 37.0172C10.4531 38.463 11.6294 39.6392 13.0752 39.6392H18.2075C19.7691 42.2213 22.2703 44.1744 25.2341 45.0206L22.369 56.114C22.2395 56.6154 22.541 57.1268 23.0422 57.2561C23.1208 57.2765 23.1997 57.2861 23.2773 57.2861C23.6944 57.2861 24.0752 57.0055 24.1843 56.5829L27.0744 45.3923C27.5561 45.4511 28.0462 45.4818 28.5434 45.4818H29.1556L25.0546 61.3604C24.9383 61.8105 24.5333 62.1248 24.0696 62.1248C23.9839 62.1248 23.8978 62.1138 23.8136 62.0919C23.5502 62.0239 23.329 61.8573 23.1908 61.6229C23.0527 61.3885 23.014 61.1144 23.0821 60.8509L23.4503 59.425C23.5798 58.9236 23.2783 58.4123 22.7771 58.2829C22.2753 58.1534 21.7643 58.4548 21.635 58.9561L21.2667 60.382C21.0735 61.1304 21.1831 61.9093 21.5757 62.5751C21.9682 63.241 22.5965 63.7141 23.3446 63.9074C23.5818 63.9687 23.8258 63.9999 24.0697 63.9999C25.3884 63.9999 26.5401 63.1073 26.8702 61.8294L28.2537 56.4727H41.7781L42.1966 58.0879C41.896 58.6513 41.7249 59.2939 41.7249 59.9759C41.7249 62.1948 43.5301 64 45.749 64C47.968 64 49.7732 62.1948 49.7732 59.9759C49.7732 58.49 48.9631 57.1905 47.762 56.4935L44.7896 45.0197C47.9064 44.1287 50.5111 42.0131 52.049 39.2292C52.0846 39.177 52.1148 39.121 52.1395 39.062C53.0368 37.3752 53.5463 35.4521 53.5463 33.4119V31.9869C53.5461 30.8585 52.6282 29.9408 51.5001 29.9408ZM16.6514 9.09671L20.5177 5.23035C20.5565 5.19185 20.7383 5.1986 20.8937 5.35398L21.588 6.04823L17.4693 10.1668L16.7751 9.47259C16.6566 9.35409 16.6362 9.23621 16.6329 9.19109C16.6297 9.14809 16.637 9.11109 16.6514 9.09671ZM16.2821 14.0057L25.4267 4.86111C27.3524 2.93549 29.9127 1.87499 32.6359 1.87499C35.3592 1.87499 37.9194 2.93549 39.845 4.86111L40.8526 5.86873C40.9193 5.93535 40.9193 6.04385 40.8526 6.11048L18.8877 28.0754C18.4463 27.8418 17.9437 27.7089 17.4106 27.7089C16.882 27.7089 16.3837 27.8396 15.9451 28.0694C12.3111 24.0732 12.423 17.8648 16.2821 14.0057ZM13.0751 37.7642C12.6632 37.7642 12.328 37.4291 12.328 37.0172C12.328 36.6054 12.6631 36.2701 13.0751 36.2701H16.816C16.9407 36.7816 17.0977 37.2805 17.2855 37.7642H13.0751ZM17.4106 32.1726C16.6969 32.1726 16.1162 31.5919 16.1162 30.8783C16.1162 30.1645 16.697 29.5839 17.4106 29.5839C18.1243 29.5839 18.705 30.1646 18.705 30.8783C18.7051 31.592 18.1243 32.1726 17.4106 32.1726ZM28.7378 54.5974L29.2641 52.56H40.7645L41.2923 54.5974H28.7378ZM29.7483 50.6851L31.0922 45.4818H38.9309L40.2789 50.6851H29.7483ZM47.8981 59.9756C47.8981 61.1606 46.934 62.1248 45.7489 62.1248C44.5639 62.1248 43.5997 61.1606 43.5997 59.9756C43.5997 58.7905 44.5639 57.8264 45.7489 57.8264C46.934 57.8264 47.8981 58.7905 47.8981 59.9756ZM45.6849 55.953C44.9702 55.9643 44.3005 56.1624 43.7222 56.5012L40.8676 45.4819H41.4758C41.9744 45.4819 42.466 45.4509 42.949 45.3919L45.6849 55.953ZM41.4758 43.6068H28.5434C25.2656 43.6068 22.346 42.0502 20.4797 39.6392H49.5396C47.6732 42.0502 44.7537 43.6068 41.4758 43.6068ZM50.693 37.7642H19.3262C18.7661 36.5829 18.426 35.278 18.3605 33.902C19.3496 33.5906 20.131 32.8065 20.4383 31.8156H51.5001C51.5943 31.8156 51.671 31.8923 51.671 31.9865V33.4116C51.671 34.968 51.3192 36.4434 50.693 37.7642Z" fill="white"/>
</g>
</g>
<g id="Group_7">
<g id="Group_8">
<path id="Vector_4" d="M41.5114 19.6754C41.3022 19.4661 41.187 19.188 41.187 18.8921C41.187 18.5963 41.3022 18.3181 41.5114 18.1089C41.8775 17.7428 41.8775 17.1491 41.5114 16.783C41.1452 16.4169 40.5516 16.4169 40.1856 16.783C39.0228 17.9459 39.0228 19.8381 40.1856 21.001C40.3949 21.2102 40.5101 21.4884 40.5101 21.7842C40.5101 22.0801 40.3949 22.3582 40.1856 22.5674C39.8195 22.9336 39.8195 23.5271 40.1855 23.8934C40.3686 24.0764 40.6085 24.168 40.8485 24.168C41.0884 24.168 41.3284 24.0765 41.5114 23.8935C42.0747 23.3301 42.385 22.5811 42.385 21.7845C42.385 20.9879 42.0747 20.2388 41.5114 19.6754Z" fill="white"/>
</g>
</g>
</g>
</svg>
