<svg width="66" height="66" viewBox="0 0 66 66" fill="none" xmlns="http://www.w3.org/2000/svg">
<g id="8_van">
<g id="Layer 6">
<path id="Vector" d="M61.5718 31.4727L61.2789 31.4315C60.3398 31.2998 59.436 30.9831 58.62 30.4999C57.804 30.0166 57.0919 29.3764 56.5249 28.6162L47.4375 16.5C46.9558 15.8611 46.3328 15.3424 45.6171 14.9846C44.9014 14.6267 44.1126 14.4395 43.3125 14.4375H5.15625C3.78923 14.4391 2.47867 14.9829 1.51204 15.9495C0.54541 16.9162 0.00163748 18.2267 0 19.5938L0 42.2812C0.00163748 43.6483 0.54541 44.9588 1.51204 45.9255C2.47867 46.8921 3.78923 47.4359 5.15625 47.4375H6.89391C7.47715 48.6714 8.39892 49.7141 9.55186 50.4444C10.7048 51.1747 12.0415 51.5624 13.4062 51.5624C14.771 51.5624 16.1077 51.1747 17.2606 50.4444C18.4136 49.7141 19.3353 48.6714 19.9186 47.4375H46.0814C46.6647 48.6714 47.5864 49.7141 48.7394 50.4444C49.8923 51.1747 51.229 51.5624 52.5938 51.5624C53.9585 51.5624 55.2952 51.1747 56.4481 50.4444C57.6011 49.7141 58.5228 48.6714 59.1061 47.4375H60.8438C62.2108 47.4359 63.5213 46.8921 64.488 45.9255C65.4546 44.9588 65.9984 43.6483 66 42.2812V36.5774C65.9945 35.3376 65.5447 34.1408 64.7322 33.2042C63.9197 32.2676 62.7985 31.6533 61.5718 31.4727ZM63.9375 39.1875H62.9062C62.2666 39.1867 61.6428 38.9881 61.1205 38.6188C60.5982 38.2496 60.2029 37.7278 59.9888 37.125H63.9375V39.1875ZM2.0625 37.125C2.336 37.125 2.59831 37.2336 2.7917 37.427C2.9851 37.6204 3.09375 37.8827 3.09375 38.1562V40.2188C3.09375 40.4923 2.9851 40.7546 2.7917 40.948C2.59831 41.1414 2.336 41.25 2.0625 41.25V37.125ZM13.4062 49.5C12.3864 49.5 11.3895 49.1976 10.5416 48.631C9.69365 48.0644 9.03276 47.2591 8.6425 46.317C8.25223 45.3748 8.15012 44.338 8.34908 43.3378C8.54803 42.3376 9.03912 41.4188 9.76023 40.6977C10.4813 39.9766 11.4001 39.4855 12.4003 39.2866C13.4005 39.0876 14.4373 39.1897 15.3795 39.58C16.3216 39.9703 17.1269 40.6311 17.6935 41.4791C18.2601 42.327 18.5625 43.3239 18.5625 44.3438C18.5609 45.7108 18.0171 47.0213 17.0505 47.988C16.0838 48.9546 14.7733 49.4984 13.4062 49.5ZM52.5938 49.5C51.5739 49.5 50.577 49.1976 49.7291 48.631C48.8811 48.0644 48.2203 47.2591 47.83 46.317C47.4397 45.3748 47.3376 44.338 47.5366 43.3378C47.7355 42.3376 48.2266 41.4188 48.9477 40.6977C49.6688 39.9766 50.5876 39.4855 51.5878 39.2866C52.588 39.0876 53.6248 39.1897 54.567 39.58C55.5091 39.9703 56.3144 40.6311 56.881 41.4791C57.4476 42.327 57.75 43.3239 57.75 44.3438C57.7484 45.7108 57.2046 47.0213 56.238 47.988C55.2713 48.9546 53.9608 49.4984 52.5938 49.5ZM60.8438 45.375H59.73C59.8868 44.3469 59.8196 43.2971 59.533 42.2973C59.2464 41.2976 58.7471 40.3717 58.0694 39.5828C57.3917 38.7939 56.5516 38.1608 55.6065 37.7268C54.6614 37.2927 53.6337 37.068 52.5938 37.068C51.5538 37.068 50.5261 37.2927 49.581 37.7268C48.6359 38.1608 47.7958 38.7939 47.1181 39.5828C46.4404 40.3717 45.9411 41.2976 45.6545 42.2973C45.3679 43.2971 45.3007 44.3469 45.4575 45.375H20.5425C20.6993 44.3469 20.6321 43.2971 20.3455 42.2973C20.0589 41.2976 19.5596 40.3717 18.8819 39.5828C18.2042 38.7939 17.3641 38.1608 16.419 37.7268C15.4739 37.2927 14.4462 37.068 13.4062 37.068C12.3663 37.068 11.3386 37.2927 10.3935 37.7268C9.4484 38.1608 8.60826 38.7939 7.93057 39.5828C7.25288 40.3717 6.75365 41.2976 6.46704 42.2973C6.18043 43.2971 6.11322 44.3469 6.27 45.375H5.15625C4.51529 45.3731 3.8908 45.1718 3.36949 44.7988C2.84818 44.4259 2.45589 43.8999 2.24709 43.2939C3.032 43.247 3.7696 42.903 4.30997 42.3318C4.85034 41.7606 5.15293 41.0051 5.15625 40.2188V38.1562C5.15625 37.3357 4.8303 36.5488 4.25011 35.9686C3.66992 35.3884 2.88301 35.0625 2.0625 35.0625V19.5938C2.0625 18.7732 2.38845 17.9863 2.96864 17.4061C3.54883 16.8259 4.33574 16.5 5.15625 16.5H43.3125C43.7925 16.5014 44.2658 16.6138 44.6951 16.8285C45.1245 17.0431 45.4984 17.3543 45.7875 17.7375L54.8749 29.8537C55.6039 30.8312 56.5196 31.6545 57.569 32.2758C58.6183 32.8971 59.7804 33.3041 60.9881 33.4733L61.281 33.5146C61.7492 33.5838 62.1953 33.7593 62.5852 34.0276C62.975 34.2959 63.2983 34.6499 63.5302 35.0625H58.7812C58.5077 35.0625 58.2454 35.1711 58.052 35.3645C57.8587 35.5579 57.75 35.8202 57.75 36.0938C57.7516 37.4608 58.2954 38.7713 59.262 39.738C60.2287 40.7046 61.5392 41.2484 62.9062 41.25H63.9375V42.2812C63.9375 43.1018 63.6115 43.8887 63.0314 44.4689C62.4512 45.0491 61.6643 45.375 60.8438 45.375Z" fill="white"/>
<path id="Vector_2" d="M48.0047 23.1C47.9234 22.9917 47.8216 22.9004 47.7051 22.8314C47.5886 22.7624 47.4596 22.717 47.3255 22.6979C47.1915 22.6787 47.0549 22.6862 46.9238 22.7198C46.7926 22.7534 46.6693 22.8125 46.5609 22.8938C46.4526 22.975 46.3613 23.0768 46.2923 23.1933C46.2233 23.3099 46.178 23.4388 46.1588 23.5729C46.1397 23.707 46.1471 23.8435 46.1807 23.9747C46.2143 24.1059 46.2734 24.2292 46.3547 24.3375L49.2937 28.2562C49.4087 28.4095 49.4786 28.5916 49.4958 28.7824C49.513 28.9731 49.4768 29.1649 49.3911 29.3362C49.3055 29.5075 49.1738 29.6515 49.0109 29.7522C48.848 29.8529 48.6603 29.9062 48.4688 29.9062H38.1562C37.8827 29.9062 37.6204 29.7976 37.427 29.6042C37.2336 29.4108 37.125 29.1485 37.125 28.875V20.625C37.125 20.3515 37.2336 20.0892 37.427 19.8958C37.6204 19.7024 37.8827 19.5938 38.1562 19.5938H42.2812C42.4413 19.5938 42.5992 19.631 42.7424 19.7026C42.8856 19.7742 43.0102 19.8782 43.1062 20.0062L44.0344 21.2438C44.1985 21.4626 44.4428 21.6072 44.7135 21.6459C44.9843 21.6846 45.2593 21.6141 45.4781 21.45C45.6969 21.2859 45.8416 21.0416 45.8803 20.7708C45.9189 20.5001 45.8485 20.2251 45.6844 20.0062L44.7563 18.7688C44.4673 18.3853 44.0935 18.0741 43.6641 17.8594C43.2346 17.6447 42.7613 17.5324 42.2812 17.5312H38.1562C37.3357 17.5313 36.5488 17.8572 35.9686 18.4374C35.3884 19.0176 35.0625 19.8045 35.0625 20.625V28.875C35.0625 29.6955 35.3884 30.4824 35.9686 31.0626C36.5488 31.6428 37.3357 31.9688 38.1562 31.9688H48.4688C49.0433 31.9688 49.6065 31.8088 50.0952 31.5067C50.584 31.2046 50.9789 30.7725 51.2359 30.2586C51.4928 29.7447 51.6016 29.1694 51.55 28.5972C51.4984 28.0249 51.2885 27.4784 50.9438 27.0188L48.0047 23.1Z" fill="white"/>
<path id="Vector_3" d="M29.9062 17.5312H6.1875C5.36699 17.5313 4.58008 17.8572 3.99989 18.4374C3.4197 19.0176 3.09375 19.8045 3.09375 20.625V28.875C3.09375 29.6955 3.4197 30.4824 3.99989 31.0626C4.58008 31.6428 5.36699 31.9688 6.1875 31.9688H29.9062C30.7268 31.9688 31.5137 31.6428 32.0939 31.0626C32.6741 30.4824 33 29.6955 33 28.875V20.625C33 19.8045 32.6741 19.0176 32.0939 18.4374C31.5137 17.8572 30.7268 17.5313 29.9062 17.5312ZM5.15625 28.875V20.625C5.15625 20.3515 5.2649 20.0892 5.4583 19.8958C5.65169 19.7024 5.914 19.5938 6.1875 19.5938H12.375V29.9062H6.1875C5.914 29.9062 5.65169 29.7976 5.4583 29.6042C5.2649 29.4108 5.15625 29.1485 5.15625 28.875ZM14.4375 19.5938H21.6562V29.9062H14.4375V19.5938ZM30.9375 28.875C30.9375 29.1485 30.8289 29.4108 30.6355 29.6042C30.4421 29.7976 30.1798 29.9062 29.9062 29.9062H23.7188V19.5938H29.9062C30.1798 19.5938 30.4421 19.7024 30.6355 19.8958C30.8289 20.0892 30.9375 20.3515 30.9375 20.625V28.875Z" fill="white"/>
<path id="Vector_4" d="M52.5938 41.25C51.9819 41.25 51.3837 41.4314 50.875 41.7714C50.3662 42.1113 49.9697 42.5945 49.7355 43.1598C49.5013 43.7251 49.4401 44.3472 49.5594 44.9473C49.6788 45.5474 49.9735 46.0987 50.4061 46.5314C50.8388 46.964 51.3901 47.2587 51.9902 47.3781C52.5903 47.4974 53.2124 47.4362 53.7777 47.202C54.343 46.9678 54.8262 46.5713 55.1661 46.0625C55.5061 45.5538 55.6875 44.9556 55.6875 44.3438C55.6875 43.5232 55.3616 42.7363 54.7814 42.1561C54.2012 41.5759 53.4143 41.25 52.5938 41.25ZM52.5938 45.375C52.3898 45.375 52.1904 45.3145 52.0208 45.2012C51.8512 45.0879 51.7191 44.9268 51.641 44.7384C51.5629 44.55 51.5425 44.3426 51.5823 44.1426C51.6221 43.9425 51.7203 43.7588 51.8645 43.6145C52.0088 43.4703 52.1925 43.3721 52.3926 43.3323C52.5926 43.2925 52.8 43.3129 52.9884 43.391C53.1768 43.4691 53.3379 43.6012 53.4512 43.7708C53.5645 43.9404 53.625 44.1398 53.625 44.3438C53.625 44.6173 53.5164 44.8796 53.323 45.073C53.1296 45.2664 52.8673 45.375 52.5938 45.375Z" fill="white"/>
<path id="Vector_5" d="M13.4063 41.25C12.7944 41.25 12.1962 41.4314 11.6875 41.7714C11.1787 42.1113 10.7822 42.5945 10.548 43.1598C10.3138 43.7251 10.2526 44.3472 10.3719 44.9473C10.4913 45.5474 10.786 46.0987 11.2186 46.5314C11.6513 46.964 12.2026 47.2587 12.8027 47.3781C13.4028 47.4974 14.0249 47.4362 14.5902 47.202C15.1555 46.9678 15.6387 46.5713 15.9786 46.0625C16.3186 45.5538 16.5 44.9556 16.5 44.3438C16.5 43.5232 16.1741 42.7363 15.5939 42.1561C15.0137 41.5759 14.2268 41.25 13.4063 41.25ZM13.4063 45.375C13.2023 45.375 13.0029 45.3145 12.8333 45.2012C12.6637 45.0879 12.5316 44.9268 12.4535 44.7384C12.3754 44.55 12.355 44.3426 12.3948 44.1426C12.4346 43.9425 12.5328 43.7588 12.677 43.6145C12.8213 43.4703 13.005 43.3721 13.2051 43.3323C13.4051 43.2925 13.6125 43.3129 13.8009 43.391C13.9893 43.4691 14.1504 43.6012 14.2637 43.7708C14.377 43.9404 14.4375 44.1398 14.4375 44.3438C14.4375 44.6173 14.3289 44.8796 14.1355 45.073C13.9421 45.2664 13.6798 45.375 13.4063 45.375Z" fill="white"/>
<path id="Vector_6" d="M40.2188 33H38.1562C37.8827 33 37.6204 33.1086 37.427 33.302C37.2336 33.4954 37.125 33.7577 37.125 34.0312C37.125 34.3048 37.2336 34.5671 37.427 34.7605C37.6204 34.9539 37.8827 35.0625 38.1562 35.0625H40.2188C40.4923 35.0625 40.7546 34.9539 40.948 34.7605C41.1414 34.5671 41.25 34.3048 41.25 34.0312C41.25 33.7577 41.1414 33.4954 40.948 33.302C40.7546 33.1086 40.4923 33 40.2188 33Z" fill="white"/>
<path id="Vector_7" d="M29.9062 33C29.6327 33 29.3704 33.1086 29.177 33.302C28.9836 33.4954 28.875 33.7577 28.875 34.0312V35.0625C28.875 35.336 28.9836 35.5983 29.177 35.7917C29.3704 35.9851 29.6327 36.0938 29.9062 36.0938C30.1798 36.0938 30.4421 35.9851 30.6355 35.7917C30.8289 35.5983 30.9375 35.336 30.9375 35.0625V34.0312C30.9375 33.7577 30.8289 33.4954 30.6355 33.302C30.4421 33.1086 30.1798 33 29.9062 33Z" fill="white"/>
</g>
</g>
</svg>
