<svg width="58" height="58" viewBox="0 0 58 58" fill="none" xmlns="http://www.w3.org/2000/svg">
<g id="9_flags" clip-path="url(#clip0_38_2501)">
<g id="Group">
<g id="Group_2">
<path id="Vector" d="M56.7182 0.16858C56.491 0.168339 56.2712 0.248706 56.0975 0.395264C55.7836 0.66051 55.4671 0.923234 55.148 1.18331C39.881 13.719 21.0341 21.0947 1.31373 22.251L0.917788 22.2731C0.388016 22.3062 -0.0145378 22.7624 0.0184978 23.2922C0.0330335 23.5259 0.132501 23.7462 0.297919 23.9117L10.8693 34.4831C11.0492 34.664 11.2936 34.766 11.5488 34.7666C11.6159 34.7666 11.6828 34.7598 11.7487 34.7464C12.0671 34.6788 12.3297 34.4545 12.4464 34.1506L16.7941 22.844L27.3098 30.7303C27.7343 31.0488 28.3366 30.963 28.6552 30.5384C28.7259 30.4442 28.7786 30.3379 28.8109 30.2248L32.286 18.06L43.6772 25.9462C44.1129 26.2493 44.7119 26.1417 45.0148 25.7058C45.1153 25.5614 45.1741 25.3923 45.1851 25.2168L46.05 11.2885L56.2879 16.4108C56.5864 16.558 56.9399 16.5401 57.222 16.3637C57.5058 16.1887 57.6785 15.8792 57.6785 15.5459V1.13034C57.6789 0.599605 57.2489 0.16894 56.7182 0.16858ZM11.1826 32.0805L3.1522 24.0501C7.09966 23.7418 11.0245 23.1918 14.9047 22.4029L11.1826 32.0805ZM27.3463 28.3546L18.3769 21.6273C22.443 20.6433 26.4393 19.3914 30.3399 17.8793L27.3463 28.3546ZM43.3706 23.3966L33.519 16.5732C37.1658 15.0039 40.7109 13.208 44.1337 11.1962L43.3706 23.3966ZM55.7565 13.9909L46.8525 9.53845C49.9387 7.58418 52.9115 5.4562 55.7565 3.16485V13.9909Z" fill="white"/>
</g>
</g>
<g id="Group_3">
<g id="Group_4">
<path id="Vector_2" d="M57.5766 44.2372C57.3915 44.1122 57.1686 44.0556 56.9463 44.0771L56.5686 44.1136C37.6715 45.9844 18.681 41.6239 2.49297 31.697C2.15084 31.4908 1.80968 31.2809 1.46947 31.0675C1.0191 30.7867 0.426265 30.9242 0.145522 31.3746C0.0269539 31.5648 -0.0213382 31.7902 0.00869419 32.0122L1.9471 46.4278C2.01762 46.9538 2.50138 47.3231 3.02743 47.2525C3.1854 47.2313 3.33568 47.1712 3.46458 47.0775L12.8222 40.2714L15.4122 53.2185C15.5157 53.739 16.0217 54.077 16.5424 53.9735C16.6997 53.9421 16.8468 53.872 16.97 53.7691L27.4703 45.017L31.795 56.2611C31.9851 56.7567 32.541 57.0042 33.0365 56.8141C33.1769 56.7603 33.3027 56.6741 33.4038 56.5629L42.1328 46.9612L48.1989 57.3509C48.3644 57.6382 48.6663 57.8197 48.9975 57.8315H49.0292C49.3481 57.8315 49.6461 57.6735 49.825 57.4096L57.8352 45.5715C58.1322 45.1316 58.0164 44.5343 57.5766 44.2372ZM3.63757 44.574L2.18256 33.7517C5.2622 35.5836 8.44539 37.2355 11.716 38.6991L3.63757 44.574ZM16.9796 51.2541L14.725 39.9792C18.4097 41.4705 22.1894 42.7149 26.0393 43.7042L16.9796 51.2541ZM33.0289 54.1094L29.328 44.4798C32.9415 45.261 36.6008 45.8133 40.2838 46.1337L33.0289 54.1094ZM49.0888 55.0704L44.0213 46.3826C47.7165 46.547 51.4183 46.479 55.1049 46.1789L49.0888 55.0704Z" fill="white"/>
</g>
</g>
<g id="Group_5">
<g id="Group_6">
<path id="Vector_3" d="M49.9905 29.9614C48.3982 29.9614 47.1074 31.2522 47.1074 32.8445C47.1074 34.4369 48.3982 35.7276 49.9905 35.7276C51.5828 35.7276 52.8736 34.4369 52.8736 32.8445C52.8736 31.2522 51.5827 29.9614 49.9905 29.9614ZM49.9905 33.8056C49.4598 33.8056 49.0295 33.3753 49.0295 32.8445C49.0295 32.3138 49.4598 31.8835 49.9905 31.8835C50.5213 31.8835 50.9516 32.3138 50.9516 32.8445C50.9516 33.3753 50.5213 33.8056 49.9905 33.8056Z" fill="white"/>
</g>
</g>
<g id="Group_7">
<g id="Group_8">
<path id="Vector_4" d="M5.78252 50.1432C4.19021 50.1432 2.89941 51.434 2.89941 53.0263C2.89941 54.6186 4.19021 55.9094 5.78252 55.9094C7.37484 55.9094 8.66563 54.6186 8.66563 53.0263C8.66563 51.434 7.37472 50.1432 5.78252 50.1432ZM5.78252 53.9873C5.25179 53.9873 4.82149 53.557 4.82149 53.0263C4.82149 52.4956 5.25179 52.0653 5.78252 52.0653C6.31326 52.0653 6.74356 52.4956 6.74356 53.0263C6.74356 53.557 6.31326 53.9873 5.78252 53.9873Z" fill="white"/>
</g>
</g>
<g id="Group_9">
<g id="Group_10">
<path id="Vector_5" d="M13.471 4.97449C11.8787 4.97449 10.5879 6.26528 10.5879 7.8576C10.5879 9.44991 11.8787 10.7407 13.471 10.7407C15.0633 10.7407 16.3541 9.44991 16.3541 7.8576C16.3541 6.26528 15.0632 4.97449 13.471 4.97449ZM13.471 8.81863C12.9403 8.81863 12.51 8.38833 12.51 7.8576C12.51 7.32686 12.9403 6.89656 13.471 6.89656C14.0017 6.89656 14.432 7.32686 14.432 7.8576C14.432 8.38833 14.0017 8.81863 13.471 8.81863Z" fill="white"/>
</g>
</g>
<g id="Group_11">
<g id="Group_12">
<path id="Vector_6" d="M2.61789 9.10013L1.25879 10.4592L3.18055 12.381L4.53965 11.0219L2.61789 9.10013Z" fill="white"/>
</g>
</g>
<g id="Group_13">
<g id="Group_14">
<path id="Vector_7" d="M41.341 4.01343H39.4189V6.89654H41.341V4.01343Z" fill="white"/>
</g>
</g>
<g id="Group_15">
<g id="Group_16">
<path id="Vector_8" d="M28.1674 1.41234L26.2456 3.33411L27.6047 4.6932L29.5265 2.77144L28.1674 1.41234Z" fill="white"/>
</g>
</g>
<g id="Group_17">
<g id="Group_18">
<path id="Vector_9" d="M19.5184 13.905L17.5967 15.8268L18.9558 17.1859L20.8775 15.2641L19.5184 13.905Z" fill="white"/>
</g>
</g>
<g id="Group_19">
<g id="Group_20">
<path id="Vector_10" d="M52.592 17.7498L51.2329 19.1089L53.1547 21.0307L54.5138 19.6716L52.592 17.7498Z" fill="white"/>
</g>
</g>
<g id="Group_21">
<g id="Group_22">
<path id="Vector_11" d="M36.5358 27.0782H34.6138V29.9614H36.5358V27.0782Z" fill="white"/>
</g>
</g>
<g id="Group_23">
<g id="Group_24">
<path id="Vector_12" d="M41.6224 36.9689L39.7007 38.8906L41.0598 40.2497L42.9815 38.328L41.6224 36.9689Z" fill="white"/>
</g>
</g>
<g id="Group_25">
<g id="Group_26">
<path id="Vector_13" d="M18.9558 32.1646L17.5967 33.5237L19.5184 35.4454L20.8775 34.0863L18.9558 32.1646Z" fill="white"/>
</g>
</g>
<g id="Group_27">
<g id="Group_28">
<path id="Vector_14" d="M25.9646 52.0652H24.0425V54.9483H25.9646V52.0652Z" fill="white"/>
</g>
</g>
<g id="Group_29">
<g id="Group_30">
<path id="Vector_15" d="M10.301 45.6197L8.94189 46.9788L10.8637 48.9005L12.2228 47.5414L10.301 45.6197Z" fill="white"/>
</g>
</g>
<g id="Group_31">
<g id="Group_32">
<path id="Vector_16" d="M11.8261 54.2687L9.9043 56.1904L11.2634 57.5495L13.1852 55.6278L11.8261 54.2687Z" fill="white"/>
</g>
</g>
<g id="Group_33">
<g id="Group_34">
<path id="Vector_17" d="M41.622 53.3072L39.7002 55.229L41.0593 56.5881L42.9811 54.6663L41.622 53.3072Z" fill="white"/>
</g>
</g>
</g>
<defs>
<clipPath id="clip0_38_2501">
<rect width="58" height="58" fill="white"/>
</clipPath>
</defs>
</svg>
