<svg width="128" height="128" viewBox="0 0 128 128" fill="none" xmlns="http://www.w3.org/2000/svg">
<g id="handshake 1">
<g id="g555">
<g id="g557">
<g id="Clip path group">
<mask id="mask0_38_2643" style="mask-type:luminance" maskUnits="userSpaceOnUse" x="0" y="0" width="128" height="128">
<g id="clipPath563">
<path id="path561" d="M0 7.62939e-06H128V128H0V7.62939e-06Z" fill="white"/>
</g>
</mask>
<g mask="url(#mask0_38_2643)">
<g id="g559">
<g id="g565">
<path id="path567" d="M2.01174 60.0825L14.832 27.5857C15.2277 26.5822 16.3622 26.0895 17.3657 26.4855L27.567 30.51C28.5705 30.9057 29.0632 32.0402 28.6672 33.0437L15.847 65.5407C15.4512 66.5442 14.3167 67.0367 13.3132 66.6407L3.11199 62.6165C2.10849 62.2205 1.61599 61.086 2.01174 60.0825Z" stroke="#292929" stroke-width="4" stroke-miterlimit="10" stroke-linecap="round" stroke-linejoin="round"/>
</g>
<g id="g569">
<path id="path571" d="M91.8544 78.26L85.1807 73.1178" stroke="#292929" stroke-width="4" stroke-miterlimit="10" stroke-linecap="round" stroke-linejoin="round"/>
</g>
<g id="g573">
<path id="path575" d="M82.9242 85.4458L76.9912 80.8781" stroke="#292929" stroke-width="4" stroke-miterlimit="10" stroke-linecap="round" stroke-linejoin="round"/>
</g>
<g id="g577">
<path id="path579" d="M73.1086 91.9902L68.8804 88.718" stroke="#292929" stroke-width="4" stroke-miterlimit="10" stroke-linecap="round" stroke-linejoin="round"/>
</g>
<g id="g581">
<path id="path583" d="M28.5359 81.2415C26.4479 79.471 26.1904 76.3432 27.9609 74.2552L32.5957 68.815C34.3662 66.727 37.4942 66.4695 39.5819 68.24C41.6699 70.0102 41.9274 73.138 40.1569 75.226L35.5222 80.6665C33.7517 82.7545 30.6239 83.012 28.5359 81.2415Z" stroke="#292929" stroke-width="4" stroke-miterlimit="10" stroke-linecap="round" stroke-linejoin="round"/>
</g>
<g id="g585">
<path id="path587" d="M36.0968 87.6526C34.0088 85.8821 33.7516 82.7544 35.5218 80.6664L40.1568 75.2261C41.9271 73.1381 45.0551 72.8806 47.1431 74.6511C49.2311 76.4214 49.4883 79.5494 47.7181 81.6371L43.0831 87.0776C41.3126 89.1656 38.1848 89.4231 36.0968 87.6526Z" stroke="#292929" stroke-width="4" stroke-miterlimit="10" stroke-linecap="round" stroke-linejoin="round"/>
</g>
<g id="g589">
<path id="path591" d="M43.6585 94.064C41.5705 92.2935 41.313 89.1657 43.0835 87.0777L47.7185 81.6372C49.4887 79.5495 52.6167 79.292 54.7047 81.0625C56.7925 82.8327 57.05 85.9605 55.2795 88.0485L50.6447 93.489C48.8742 95.577 45.7465 95.8345 43.6585 94.064Z" stroke="#292929" stroke-width="4" stroke-miterlimit="10" stroke-linecap="round" stroke-linejoin="round"/>
</g>
<g id="g593">
<path id="path595" d="M51.2195 100.475C49.1315 98.7046 48.874 95.5769 50.6445 93.4889L55.2793 88.0486C57.0498 85.9606 60.1778 85.7031 62.2655 87.4736C64.3535 89.2439 64.611 92.3716 62.8405 94.4596L58.2058 99.9001C56.4353 101.988 53.3075 102.246 51.2195 100.475Z" stroke="#292929" stroke-width="4" stroke-miterlimit="10" stroke-linecap="round" stroke-linejoin="round"/>
</g>
<g id="g597">
<path id="path599" d="M100.171 70.4194L97.6778 68.5797L85.9528 59.9264L84.6093 58.9819C73.5403 60.8622 66.1196 54.7972 63.0988 51.6429C62.2103 50.7149 60.7438 50.6797 59.788 51.5382C49.4088 60.8599 43.3983 58.4707 40.48 55.6977C39.0768 54.3644 39.3183 52.0662 40.9475 51.0204C46.5263 47.4397 51.7358 42.9074 55.458 39.3752L54.7953 39.1269C52.439 38.2439 49.9628 37.7232 47.4508 37.5819L40.5865 37.1964C39.6875 37.1459 38.7858 37.1347 37.8873 37.1924C36.267 37.2967 34.6403 37.0257 33.1353 36.3959L28.1656 34.3164L15.9771 65.2117L25.6128 71.2887L28.6623 73.4322L32.596 68.8152C34.3663 66.7269 37.4941 66.4697 39.5821 68.2399C41.6701 70.0104 41.9276 73.1382 40.1571 75.2262C41.9276 73.1382 45.0553 72.8807 47.1433 74.6512C49.2313 76.4217 49.4888 79.5494 47.7183 81.6374C49.4888 79.5494 52.6165 79.2919 54.7045 81.0624C56.7925 82.8327 57.05 85.9607 55.2795 88.0484C57.05 85.9607 60.1778 85.7032 62.2658 87.4734C64.3538 89.2439 64.6113 92.3719 62.8408 94.4597L60.9608 96.6664L65.099 99.7207C67.3973 101.417 70.636 101.222 72.6093 99.1572C74.53 97.1477 74.6445 94.1227 73.109 91.9902L75.1841 93.5214C77.5506 95.2679 80.9023 94.9999 82.8473 92.7942C84.7315 90.6574 84.6838 87.5224 82.9243 85.4457L84.09 86.3057C86.3465 87.9709 89.518 87.8199 91.5033 85.8392C93.6138 83.7334 93.6698 80.4344 91.8548 78.2599L93.6048 79.5517C96.0513 81.3569 99.4963 80.8934 101.376 78.4879C103.339 75.9764 102.736 72.3122 100.171 70.4194Z" stroke="#292929" stroke-width="4" stroke-miterlimit="10" stroke-linecap="round" stroke-linejoin="round"/>
</g>
<g id="g601">
<path id="path603" d="M72.1213 35.4378L65.0043 34.3098C62.5966 33.9281 60.1498 34.7253 58.4361 36.4588C54.9046 40.0313 48.2401 46.3398 40.9476 51.0206C39.3183 52.0663 39.0766 54.3643 40.4801 55.6978C43.3981 58.4706 49.4086 60.8598 59.7881 51.5381C60.7438 50.6796 62.2101 50.7148 63.0988 51.6428C66.1246 54.8023 73.5636 60.8828 84.6621 58.9741L101.349 71.2888L111.778 64.5898L99.8681 34.4008L92.6293 37.0731C90.6218 37.8141 88.4576 38.0271 86.3441 37.6923L80.8158 36.8161" stroke="#292929" stroke-width="4" stroke-miterlimit="10" stroke-linecap="round" stroke-linejoin="round"/>
</g>
<g id="g605">
<path id="path607" d="M118.111 40.1141L113.168 27.5856C112.772 26.5824 111.638 26.0896 110.634 26.4854L100.433 30.5099C99.4293 30.9059 98.9368 32.0404 99.3325 33.0436L112.153 65.5406C112.549 66.5441 113.683 67.0366 114.687 66.6408L124.888 62.6163C125.892 62.2203 126.384 61.0861 125.988 60.0826L121.326 48.2638" stroke="#292929" stroke-width="4" stroke-miterlimit="10" stroke-linecap="round" stroke-linejoin="round"/>
</g>
</g>
</g>
</g>
</g>
</g>
</g>
</svg>
