<svg width="128" height="128" viewBox="0 0 128 128" fill="none" xmlns="http://www.w3.org/2000/svg">
<g id="united">
<path id="Vector" d="M126.843 94.9823L118.041 86.1649C117.292 85.4149 116.297 85.0018 115.237 85.0018C114.179 85.0018 113.182 85.4149 112.434 86.1649L112.23 86.369L111.652 85.7909C110.938 85.075 110.386 84.242 110.011 83.3348C109.977 83.2147 109.933 83.0975 109.877 82.9872C109.59 82.1805 109.44 81.3221 109.44 80.4403V77.9462C109.44 76.5 109.489 76 109.429 74.6132C109.313 71.9491 108.224 69.4608 106.33 67.5624L97.7908 59.0087C95.8748 57.0897 93.327 56.0331 90.617 56.0331C88.5194 56.0331 86.5213 56.6688 84.8358 57.8456L83.9295 56.9345V35.4892C83.9295 32.9042 82.9911 30.4101 81.2879 28.4677C80.076 27.0869 79.409 25.3134 79.409 23.4736V21.9023H79.5379C81.7235 21.9023 83.5018 20.124 83.5018 17.9375V5.46484C83.5018 3.27832 81.7235 1.5 79.5379 1.5H44.5136C42.328 1.5 40.5497 3.27832 40.5497 5.46484V17.9375C40.5497 20.124 42.328 21.9023 44.5136 21.9023H44.8027V22.7246C44.8027 24.7461 44.0165 26.6464 42.5898 28.0751L38.8095 31.8623C36.8036 33.872 35.6992 36.5429 35.6992 39.3847V51.4814C35.6992 53.1249 36.0937 54.6767 36.788 56.0517C34.3017 56.1952 31.9843 57.2313 30.2089 59.0087L21.6699 67.5624C19.664 69.5721 18.5595 72.244 18.5595 75.0848V80.4403C18.5595 82.4618 17.7744 84.3622 16.3476 85.7909L15.7763 86.3631C15.7734 86.3651 15.7715 86.367 15.7695 86.369L15.5664 86.1649C14.8174 85.4149 13.8222 85.0018 12.7627 85.0018C11.7041 85.0018 10.708 85.4149 9.95994 86.1649L1.15722 94.9823C-0.385741 96.5282 -0.385741 99.0438 1.15722 100.59L4.17187 103.608C4.90331 104.342 6.09081 104.343 6.82323 103.611C7.55565 102.879 7.5576 101.692 6.82518 100.959L3.81152 97.9393C3.72656 97.8543 3.72656 97.7166 3.81152 97.6317L12.6142 88.8143C12.6963 88.7323 12.8301 88.7313 12.9121 88.8143L14.4424 90.3475L35.3388 111.279L37.6796 113.625C37.7646 113.71 37.7646 113.847 37.6796 113.932L28.8779 122.75C28.7949 122.833 28.6611 122.833 28.5791 122.75L12.1338 106.276C11.4023 105.543 10.2148 105.542 9.4824 106.273C8.74901 107.006 8.74803 108.192 9.47948 108.926L25.9257 125.399C26.6738 126.149 27.6699 126.562 28.7294 126.562C29.788 126.562 30.7831 126.149 31.5322 125.399L40.3339 116.582C41.8769 115.037 41.8769 112.521 40.3339 110.975L40.2382 110.88L41.3486 109.767C42.6454 108.468 44.3681 107.686 46.1991 107.568C48.7763 107.401 51.2011 106.302 53.0263 104.472L61.1122 96.369C63.4442 95.7567 65.2597 93.8573 65.7528 91.4784C66.5839 91.8739 67.5126 92.0965 68.493 92.0965C72.0194 92.0965 74.8885 89.2244 74.8885 85.6932V81.2411C75.6952 81.6092 76.5907 81.8163 77.534 81.8163C81.0604 81.8163 83.9286 78.9442 83.9286 75.413V62.2509L89.6961 68.0468C90.0623 68.4149 90.5438 68.5985 91.0252 68.5985C91.5037 68.5985 91.9823 68.4169 92.3485 68.0526C93.0819 67.3221 93.0848 66.1356 92.3543 65.4013L87.5457 60.5692C88.4764 60.0565 89.5252 59.7831 90.617 59.7831C92.3241 59.7831 93.9295 60.4491 95.1366 61.6591L103.676 70.2118C104.974 71.5135 105.69 73.244 105.69 75.0848V80.4403C105.69 83.4627 106.865 86.3036 108.998 88.4403L109.58 89.0233L106.86 91.7479L90.411 108.225L89.494 107.306C89.4842 107.298 89.4754 107.288 89.4657 107.279L89.3045 107.117C87.3631 105.173 84.784 104.004 82.0438 103.826C80.3768 103.718 78.8085 103.007 77.6219 101.819L71.4608 95.6912C70.7264 94.9608 69.5389 94.9637 68.8085 95.6981C68.079 96.4324 68.0819 97.6199 68.8163 98.3494L74.9735 104.472C76.7987 106.302 79.2235 107.401 81.8016 107.568C83.6317 107.686 85.3543 108.468 86.6512 109.766L86.742 109.857C86.7909 109.913 86.8426 109.965 86.8973 110.013L87.7616 110.879L87.6659 110.975C86.1229 112.521 86.1229 115.036 87.6659 116.582L96.4676 125.399C97.2166 126.149 98.2117 126.562 99.2713 126.562C100.33 126.562 101.326 126.149 102.075 125.399L126.843 100.589C128.386 99.0428 128.386 96.5282 126.843 94.9823ZM50.372 101.823C49.1913 103.007 47.623 103.718 45.9569 103.826C43.2157 104.004 40.6366 105.173 38.6952 107.117L37.5888 108.225L36.5927 107.227C36.58 107.215 36.5673 107.201 36.5546 107.189L18.4199 89.0233L19.0019 88.4403C21.1347 86.3036 22.3095 83.4627 22.3095 80.4403V75.0848C22.3095 73.244 23.0244 71.5135 24.3242 70.2118L32.8632 61.6591C34.0703 60.4491 35.6757 59.7831 37.3827 59.7831C38.4775 59.7831 39.5302 60.0585 40.4638 60.5751L35.6474 65.3993C34.916 66.1317 34.9169 67.3192 35.6493 68.0507C36.0156 68.4159 36.4951 68.5985 36.9745 68.5985C37.455 68.5985 37.9355 68.4149 38.3017 68.0487L44.0546 62.285V85.6932C44.0546 89.2244 46.9237 92.0965 50.4501 92.0965C51.4442 92.0965 52.3856 91.868 53.2255 91.4618C53.6063 93.3202 54.7938 94.8866 56.4032 95.7791L50.372 101.823ZM80.1795 75.4139C80.1795 76.8768 78.9921 78.0672 77.534 78.0672C76.0751 78.0672 74.8885 76.8768 74.8885 75.4139V54.4989C74.8885 53.4638 74.0497 52.6239 73.0135 52.6239C71.9774 52.6239 71.1385 53.4638 71.1385 54.4989V85.6942C71.1385 87.1571 69.952 88.3465 68.493 88.3465C67.1835 88.3465 66.0966 87.3875 65.8866 86.1327V54.4774C65.8866 53.4413 65.0477 52.6024 64.0116 52.6024C63.6786 52.6024 63.3651 52.6903 63.0936 52.8427C62.5009 53.1581 62.0975 53.7812 62.0975 54.4989V85.6932C62.0975 85.9315 62.1112 86.1649 62.1366 86.3963V90.1746C62.1366 91.6375 60.9501 92.828 59.4911 92.828C58.0331 92.828 56.8466 91.6375 56.8466 90.1746V54.455C56.8466 53.4198 56.0067 52.58 54.9716 52.58C53.9355 52.58 53.0956 53.4198 53.0956 54.455V85.6932C53.0956 87.1561 51.9091 88.3465 50.4511 88.3465C48.9921 88.3465 47.8056 87.1561 47.8056 85.6932V50.8153C47.8056 49.7792 46.9657 48.9394 45.9306 48.9394C44.8945 48.9394 44.0556 49.7792 44.0556 50.8153V57.2665C43.8984 57.3173 43.746 57.3886 43.6044 57.4823C41.1796 56.5712 39.4492 54.2255 39.4492 51.4814V39.3847C39.4492 37.5439 40.165 35.8134 41.4638 34.5117L45.2441 30.7246C47.3778 28.5878 48.5526 25.747 48.5526 22.7246V21.9023H52.3222C53.3583 21.9023 54.1972 21.0625 54.1972 20.0273C54.1972 18.9912 53.3583 18.1523 52.3222 18.1523H44.5136C44.3954 18.1523 44.2997 18.0556 44.2997 17.9375V5.46484C44.2997 5.34667 44.3954 5.24999 44.5136 5.24999H79.537C79.6561 5.24999 79.7518 5.34667 79.7518 5.46484V17.9375C79.7518 18.0566 79.6561 18.1523 79.537 18.1523H61.1249C60.0897 18.1523 59.2499 18.9912 59.2499 20.0273C59.2499 21.0625 60.0897 21.9023 61.1249 21.9023H75.659V23.4736C75.659 26.2236 76.6561 28.875 78.4676 30.9414C79.5712 32.1992 80.1795 33.8144 80.1795 35.4892V75.4139ZM124.188 97.9393L99.4207 122.75C99.3797 122.792 99.3299 122.812 99.2713 122.812C99.2137 122.812 99.1639 122.792 99.1219 122.75L90.3202 113.932C90.2352 113.847 90.2352 113.71 90.3202 113.625L91.7371 112.205L91.7381 112.204L106.116 97.8016L115.088 88.8143C115.17 88.7313 115.304 88.7313 115.386 88.8143L124.188 97.6317C124.273 97.7166 124.273 97.8543 124.188 97.9393Z" fill="#292929"/>
</g>
</svg>
