<svg width="128" height="128" viewBox="0 0 128 128" fill="none" xmlns="http://www.w3.org/2000/svg">
<g id="wedding-ring">
<g id="g7479">
<g id="g7481">
<path id="path7483" d="M58.8071 22.4896V50.3174" stroke="#292929" stroke-width="4" stroke-miterlimit="10" stroke-linecap="round" stroke-linejoin="round"/>
</g>
<g id="g7485">
<path id="path7487" d="M71.6523 48.5521V50.3174" stroke="#292929" stroke-width="4" stroke-miterlimit="10" stroke-linecap="round" stroke-linejoin="round"/>
</g>
<g id="g7489">
<path id="path7491" d="M71.6523 18.4982V38.3059" stroke="#292929" stroke-width="4" stroke-miterlimit="10" stroke-linecap="round" stroke-linejoin="round"/>
</g>
<g id="g7493">
<path id="path7495" d="M84.4976 48.5521V50.3174" stroke="#292929" stroke-width="4" stroke-miterlimit="10" stroke-linecap="round" stroke-linejoin="round"/>
</g>
<g id="g7497">
<path id="path7499" d="M84.4976 28.6392V38.3059" stroke="#292929" stroke-width="4" stroke-miterlimit="10" stroke-linecap="round" stroke-linejoin="round"/>
</g>
<g id="g7501">
<path id="path7503" d="M45.9619 75.0938V51.4123" stroke="#292929" stroke-width="4" stroke-miterlimit="10" stroke-linecap="round" stroke-linejoin="round"/>
</g>
<g id="g7505">
<g id="Clip path group">
<mask id="mask0_38_2601" style="mask-type:luminance" maskUnits="userSpaceOnUse" x="0" y="0" width="128" height="128">
<g id="clipPath7511">
<path id="path7509" d="M0 7.62939e-06H128V128H0V7.62939e-06Z" fill="white"/>
</g>
</mask>
<g mask="url(#mask0_38_2601)">
<g id="g7507">
<g id="g7513">
<path id="path7515" d="M88.1875 108.549V104.231C88.1875 103.282 88.374 102.342 88.7367 101.465L90.7357 96.6301L93.7447 89.3546C96.12 83.6111 97.3437 77.4556 97.3437 71.2388V63.3738" stroke="#292929" stroke-width="4" stroke-miterlimit="10" stroke-linecap="round" stroke-linejoin="round"/>
</g>
<g id="g7517">
<path id="path7519" d="M45.9625 38.7071V51.4123C45.9625 47.1856 42.536 43.7591 38.3093 43.7591C34.0823 43.7591 30.6558 47.1856 30.6558 51.4123V72.5873C30.6558 80.1556 33.4518 87.4631 38.5035 93.0973L45.346 100.732C46.5363 102.059 47.1943 103.78 47.1943 105.563V108.549" stroke="#292929" stroke-width="4" stroke-miterlimit="10" stroke-linecap="round" stroke-linejoin="round"/>
</g>
<g id="g7521">
<path id="path7523" d="M97.3437 65V28.6387C97.3437 25.0965 94.4724 22.225 90.9302 22.225H90.9114C87.3694 22.225 84.4977 25.0965 84.4977 28.6387V18.498C84.4977 14.9512 81.6226 12.0762 78.0761 12.0762C74.5294 12.0762 71.6544 14.9512 71.6544 18.498V13.8825C71.6544 10.3345 68.7782 7.45823 65.2302 7.45823C61.6822 7.45823 58.8059 10.3345 58.8059 13.8825V22.4907C58.8059 18.9472 55.9329 16.0745 52.3894 16.0745H52.3789C48.8352 16.0745 45.9624 18.9472 45.9624 22.4907V40" stroke="#292929" stroke-width="4" stroke-miterlimit="10" stroke-linecap="round" stroke-linejoin="round"/>
</g>
<g id="g7525">
<path id="path7527" d="M91.807 126.125V111.892C91.807 110.56 90.7268 109.479 89.3943 109.479H76.374" stroke="#292929" stroke-width="4" stroke-miterlimit="10" stroke-linecap="round" stroke-linejoin="round"/>
</g>
<g id="g7529">
<path id="path7531" d="M80.5 109.479H45.9879C44.6554 109.479 43.5752 110.56 43.5752 111.892V126.125" stroke="#292929" stroke-width="4" stroke-miterlimit="10" stroke-linecap="round" stroke-linejoin="round"/>
</g>
<path id="path7533" d="M84.4976 48.0515H71.6523V38.806H84.4976V48.0515Z" stroke="#292929" stroke-width="4" stroke-miterlimit="10" stroke-linecap="round" stroke-linejoin="round"/>
<g id="g7535">
<path id="path7537" d="M87.4976 8.34985L89.3386 6.52035" stroke="#292929" stroke-width="4" stroke-miterlimit="10" stroke-linecap="round" stroke-linejoin="round"/>
</g>
<g id="g7539">
<path id="path7541" d="M82.0254 4.44189L82.6429 1.87489" stroke="#292929" stroke-width="4" stroke-miterlimit="10" stroke-linecap="round" stroke-linejoin="round"/>
</g>
<g id="g7543">
<path id="path7545" d="M93.9462 13.2403L91.375 13.8423" stroke="#292929" stroke-width="4" stroke-miterlimit="10" stroke-linecap="round" stroke-linejoin="round"/>
</g>
</g>
</g>
</g>
</g>
</g>
</g>
</svg>
